<svg xmlns="http://www.w3.org/2000/svg" viewBox="0 0 499.57 499.57"><defs><style>.cls-1{fill:#7daed3;}.cls-2{fill:#f15a29;}.cls-3{fill:#fff;}.cls-4{fill:#d2f4ff;}</style></defs><title>adelie</title><g id="Layer_13" data-name="Layer 13"><rect class="cls-1" width="499.57" height="499.57"/></g><g id="Layer_11" data-name="Layer 11"><path d="M327.3,403.24c.59.36-.37,2.05.78,3.54a6.51,6.51,0,0,0,2.53,1.46,31.05,31.05,0,0,0,4.31,1.54,20.85,20.85,0,0,1,2.75.75c0,.19-2.08,0-5.75,0h-3.38q7.88,2.06,7.75,2.75t-8.87,0q5.64,2.73,5.48,3.17t-7.36-1.79a10.48,10.48,0,0,0,2.88,3.12,10.34,10.34,0,0,0,4,1.75c-.58.28-5,2.29-9.38,0-.7-.36-3.41-1.79-4.22-4.58C317.07,408.89,326,402.4,327.3,403.24Z" transform="translate(-0.43 -1)"/><path d="M319.33,190.84c8.75,11.68,15.51,21.27,20.27,28.2,3,4.37,5.39,7.94,6.23,9.21,4.93,7.4,8.9,13.68,12.8,19.84a441.83,441.83,0,0,1,26.1,50,22,22,0,0,1,.91,2.93c.29,1.05.37,1.49.17,1.95a2.05,2.05,0,0,1-2.05,1.18c-1.25-.23-1.77-2.52-2-3.53-1-3.78-3.57-7-5.09-10.56-2.2-5.24-13.81-25.49-34.65-48.75-13.93-15.56-18-20-20.9-30.07A54,54,0,0,1,319.33,190.84Z" transform="translate(-0.43 -1)"/><path class="cls-2" d="M178.92,49a89.23,89.23,0,0,0-10-1.42,29.8,29.8,0,0,0-7.6,0A23.89,23.89,0,0,0,156.44,49c-4.9,1.22-5.61,2.91-5.76,3.62-.74,3.57,7.36,8.09,10.57,9.88a47.71,47.71,0,0,0,8.58,3.72,2.1,2.1,0,0,0,1.48.85Q174.85,67.13,178.92,49Z" transform="translate(-0.43 -1)"/><path d="M185.71,192a173.87,173.87,0,0,0-34.29,19.79c-6.15,4.55-10,7.48-14.5,12.25-15,15.9-24.95,42.13-16.5,51.35.79.86,2.32,2.53,4.25,2.4,7.59-.49,2.34-28.07,18-45.5,12.41-13.8,28.11-10.24,38.25-27.62A41.92,41.92,0,0,0,185.71,192Z" transform="translate(-0.43 -1)"/><path class="cls-3" d="M325.47,207.43c2.52,2.66,6.08,6.6,10,11.61,7.25,9.13,10,14.38,18.86,29.05,0,0,17,28,27.93,51.49.62,1.33,2,4.23,1.45,4.56-1,.67-8.82-9.66-12.4-14.4-21.6-28.69-19.42-33.17-31.25-43.35-7.79-6.69-12-7.94-14.95-14.61C321.36,223.26,323.21,214.06,325.47,207.43Z" transform="translate(-0.43 -1)"/><path d="M164.25,64a94.91,94.91,0,0,1,13,9.83c6.07,5.48,9.1,8.22,11.5,13,1.77,3.54,1.51,4.79,4.83,13.67,1.33,3.53,2.52,6.41,3.34,8.33a28,28,0,0,1,2.16-5.33c.65-1.21,4.21-7.87,10.17-10.67,8.2-3.85,17.58,1.21,19.67,2.34,8.33,4.49,7.81,9.36,19.66,23,4,4.64,8,8.43,16,16,14.32,13.59,14.22,11.69,17.34,16.16,4.22,6.05,3.32,8,12,28.75,4,9.55,3.44,7.39,4.75,11,5.73,15.82,4.24,24.3,11.25,36.5a52.88,52.88,0,0,0,4,6,47.64,47.64,0,0,0,.5-10.75c-.67-9.83-4.64-18.14-6.25-21.5-3.7-7.7-6-9.23-5.27-12.69,1-4.34,5.35-5,9.18-9.31,3.05-3.4,6.05-9.39,5.22-20.71-1.91-5.23-3.62-9.51-4.85-12.52-4.36-10.68-6.62-16.13-10.37-21.44-1.91-2.71-3.87-5-7.13-8.88-5.17-6.12-6.55-7.07-8.53-10.11-2.89-4.43-3.67-8.05-5.11-13.52-4.58-17.39-6.87-26.09-11.89-32.32A54.41,54.41,0,0,0,257.17,48a51.75,51.75,0,0,0-7.75-4c-1.38-.56-5.36-2.12-16.5-3.75C224.09,39,219.58,38.36,214.67,39a46,46,0,0,0-10.5,2.75c-5.87,2.38-6.65,3.79-8.75,4.85a13.94,13.94,0,0,1-2.5.9,27.61,27.61,0,0,1-8.17.48c-4.7-.08-11,1.57-11.58,4.27-.45,2,2.41,3.36,1.75,5.5-.43,1.39-2.17,2.18-4,3-1.31.6-1.75.54-3.22,1.18A17.88,17.88,0,0,0,164.25,64Z" transform="translate(-0.43 -1)"/><path d="M311.76,151.11c2.23,0,3.95,3.11,5.54,6.46,6.87,14.43,6.95,24.29,10,41.71,2.32,13.14,4.15,18.19,8.25,41.61q.24,1.4.42,2.4c3,17.63,4.54,26.7,5.27,39,.39,6.47.25,15.35-.25,32.87-.23,8.19-2.26,70.88-13.72,89.45a55.41,55.41,0,0,1-4,5.51c-5.79,7-14.42,13.5-16,12.15-1.92-1.62,9.79-15.56,18.4-35.69,7.55-17.65,9.4-32.31,10.87-44,2.32-18.4,8.39-66.49-15.53-111-10.19-19-20.87-28.6-20.67-48.34C300.47,168.94,306.39,151.1,311.76,151.11Z" transform="translate(-0.43 -1)"/><path class="cls-3" d="M193.42,120.45a17,17,0,0,1,1.52-4c1-1.8,1.79-2.31,2.19-3.78a8.76,8.76,0,0,0-.21-3.86c-.21-6.22,5.67-13.26,12.33-16,7.85-3.22,15.33.3,19.67,2.34,8.22,3.86,13.1,10,18.4,16.77,3.83,4.85,9.79,13.52,14.8,17.64.35.29,1.88,1.52,3.85,3.33,1.67,1.52,3.22,3.07,5,5a110.7,110.7,0,0,1,10.91,12.45c.6.83,1.11,1.58,1.62,2.41,4.53,7.5,7.65,15.8,12.13,29.38,3.81,11.54,5.46,17.39,5.93,18.5,2.5,5.9,4.78,9.79,9.29,20.22,1.3,3,2.34,5.54,3,7.24a27.58,27.58,0,0,0,.5-6.25c-.23-6.08-2.47-10-2-10.2.81-.42,6.17,6.67,11,16.21,9.55,18.89,11.83,37.13,13.42,49.94.82,6.6,1.25,13.24,1.29,13.87.44,7.1.46,12.68.46,16.4,0,41.28-9.95,82.81-16,104.64a18.17,18.17,0,0,1-4.8,7.84c-4.11,3.85-9.14,4.52-15.66,5.14-15.28,1.44-24.5,1.41-24.5,1.41-13.79,0-20.68-.06-28-1-14.29-1.83-20.61-4.79-23-6a37.35,37.35,0,0,1-12.25-9c-4-4.66-5.67-9.19-7.5-14.5-6.12-17.71-9.18-26.57-9.5-27.75a380.29,380.29,0,0,1-8.25-37.5c-1.46-8.88-2.07-14.6-4.25-37-2.8-28.7-4.2-43.06-4.75-50-.82-10.24-2.7-35.25-1.5-57.75.29-5.41,1.31-13.28,1.35-13.69,1.79-16.13,2.69-24.2,4.3-29.19C187.05,135.22,192,125.46,193.42,120.45Z" transform="translate(-0.43 -1)"/><path class="cls-4" d="M204.67,65.53a4.44,4.44,0,0,0,.16,2.67A8.25,8.25,0,0,0,207,72.12a5.29,5.29,0,0,0,7,1.08c.3-.15,4.13-2.09,3.83-4.42-.1-.82-.76-1.4-2.08-2.58a12,12,0,0,0-3.61-2.33c-1.62-.67-3.07-1.27-4.72-.75A4.25,4.25,0,0,0,204.67,65.53Z" transform="translate(-0.43 -1)"/><circle cx="210.96" cy="67.55" r="3.81"/><path class="cls-3" d="M185.71,192q-2.94,2-6,4s-2.81,1.86-5.57,3.64C164.32,206,146.94,215,136.92,224a107.27,107.27,0,0,0-7.92,8.12,63.42,63.42,0,0,0-4,5.1c-.42.6-.59.87-1.17,1.75-2.06,3.09-3.64,5.27-4.15,6a90.79,90.79,0,0,0-6.73,11.66c-3.93,8.56-5.7,22.39,1,30,1.06,1.2,3.59,4.07,6.75,3.9,3.83-.22,6.37-4.79,7.75-7s8.19-8.09,21.62-19.5c17.26-14.65,23.75-17,26.38-17.87,4.64-1.52,5.09-1.24,6.87-2.38C189.84,239.62,193.63,226.79,185.71,192Z" transform="translate(-0.43 -1)"/><path class="cls-2" d="M227.67,413.78c.41,3.13,1.2,10.45,0,16a5.47,5.47,0,0,1-1.5,3c-1.71,1.59-4.13,1.19-7.5,1-4.62-.26-8.12-.45-11.5.5-3.77,1.07-6.22,3.23-8.5,5.25-4,3.52-7.13,8.12-6.5,8.75.45.46,2.13-1.92,5.75-3,6.53-1.94,11,2.88,15.6,0,1.16-.71.7-.9,2.4-2.25,4.05-3.2,7.77-2.17,10.25-4,7-5.11,10.6-16.72,6.25-22.25A9.32,9.32,0,0,0,227.67,413.78Z" transform="translate(-0.43 -1)"/><path class="cls-2" d="M209.79,453.16a9.85,9.85,0,0,1,1-4,17.88,17.88,0,0,1,5.13-6.13c2.79-2.3,4.46-3.69,7.25-4.37a14.58,14.58,0,0,1,10,1.37c2,1,4.65,2.33,4.87,4.63s-2.09,4.22-2.87,4.87a10.89,10.89,0,0,1-4.63,2.13,19,19,0,0,1-6.12.5c-1.8-.14-2-.41-3-.25-2,.31-2.89,1.58-4.31,2.48s-3.48,1.59-7.07,1A9.21,9.21,0,0,1,209.79,453.16Z" transform="translate(-0.43 -1)"/><path class="cls-2" d="M234.71,447.2a6.92,6.92,0,0,1,1.46-3.31c1-1.18,2.21-1.35,3.5-2.05,5.21-2.84,5.82-4.55,8.5-4.56a6.32,6.32,0,0,1,4.12,1.25,5.79,5.79,0,0,1,1.75,6.63,5.37,5.37,0,0,1-2.62,2.37c-2.11,1-8.88,4.41-10.63,5.13-3.15,1.29-3.46,3.41-4.62,3.12C234.47,455.37,234,450.57,234.71,447.2Z" transform="translate(-0.43 -1)"/><path class="cls-2" d="M254.27,441.64c-1.77-4.73-3.78-6.32-5.35-6.86a5.33,5.33,0,0,1-2.41-1.39c-.86-.91-.81-2.12-.84-3.61-.08-4.21-.17-12.74-.63-13.75-2.37-5.22-16.88-4.45-17.37-2.25-.19.83,1.79,1.1,2.75,3.5s-.68,3,0,7c.12.74.44,2.46.75,4.88.24,1.89.24,2.35,0,2.87-.69,1.51-2.26,1.24-3.63,2.75a6.21,6.21,0,0,0-1.37,4.25c.18,3.8,4.06,5.9,4.4,6.07,1.1.58,1.73.58,7.37.73,4.89.13,6.47.18,7.77-.06a8.61,8.61,0,0,0,1-.24A21.9,21.9,0,0,0,254.27,441.64Z" transform="translate(-0.43 -1)"/><path class="cls-2" d="M294,418.11c2.33,7.24,1.73,13.45,0,16a14.77,14.77,0,0,1-2.78,3,13.32,13.32,0,0,1-3.18,1.84c-3.67,1.51-6.62,1.15-10.17,1.82a19.9,19.9,0,0,0-10,4.75c-3.44,3.28-4.83,7.76-4.23,8.18s1.94-3,5.59-4.08c4.19-1.22,7.08,1.91,10.62,0,1.12-.61,1-1.11,2.4-2.25,4.05-3.2,7.76-2.17,10.25-4,7-5.11,10.59-16.72,6.25-22.25A9.32,9.32,0,0,0,294,418.11Z" transform="translate(-0.43 -1)"/><path d="M199.46,439.83c-2.27.09-3.86,2.27-5.56,4.61a24.35,24.35,0,0,0-2.73,4.84.64.64,0,0,0,.29.3c.53.24,1.33-.44,1.56-.62,2.08-1.7,4.82-1.44,7.77-4.47.93-.95,2.06-2.11,1.73-3.16S200.68,439.78,199.46,439.83Z" transform="translate(-0.43 -1)"/><path d="M214.16,444.68a13.6,13.6,0,0,0-3.4,3.79,13.91,13.91,0,0,0-2,7.25,6,6,0,0,0,1.88.87,6.79,6.79,0,0,0,5.44-1.2c2-1.51,3.51-4.6,2.31-7.36A6.42,6.42,0,0,0,214.16,444.68Z" transform="translate(-0.43 -1)"/><path d="M237,445.66a13.37,13.37,0,0,0-2.87,4.87c-.47,1.44-1,3.09-.25,4.71a4.37,4.37,0,0,0,1.25,1.54,10.76,10.76,0,0,0,1.88-1.3c1.34-1.12,1.65-1.89,2.74-2.45a4.82,4.82,0,0,1,2.41-.48,16.4,16.4,0,0,0-.72-4.45c-.46-1.52-.77-2.47-1.66-2.87A3.24,3.24,0,0,0,237,445.66Z" transform="translate(-0.43 -1)"/><path class="cls-2" d="M276.08,443.78c-1.18.62-1.73,1.39-7,9.62-.57.89-1,1.64-1.34,2.13a14.55,14.55,0,0,1,4.33-1.83c2.12-.51,3.16-.24,5.08-.78a12.08,12.08,0,0,0,4.42-2.36,20.24,20.24,0,0,1,6.17-.86c7.9.16,10.08,4.78,14.79,3.92,5.39-1,9.8-8.41,10-14.34a17.51,17.51,0,0,0-.29-4.08,33.13,33.13,0,0,1-.29-4.11c-.13-2,.05-5.81,1.67-14.14a46.18,46.18,0,0,0-10.88-.4,47,47,0,0,0-8.77,1.56c.4.85,7.1,15,2.34,19.42-.66.62-3.6,1.43-9.26,3.67a26.7,26.7,0,0,1-4.57,1.23C277,443.75,277.34,443.13,276.08,443.78Z" transform="translate(-0.43 -1)"/><path d="M267.65,445.66a11,11,0,0,0-2.45,2.63c-1.83,2.35-2,3.64-2,4.39,0,.17,0,1.16.43,1.27s.68-.47,1.26-1a10.84,10.84,0,0,1,2.6-1.63c2.18-1.14,2.53-1,3.52-1.62,1.95-1.15,3.92-3.51,3.4-4.61S270.12,444,267.65,445.66Z" transform="translate(-0.43 -1)"/><path d="M267.45,454.81c.94-2.81,2.81-6.62,6.53-8.71,1.6-.9,3.21-1.63,4.88-1a4.56,4.56,0,0,1,2.72,5c-.57,2.06-3.27,2.85-5.05,3.38-3.13.91-4.36,0-6.67,1.37-1,.6-2,1.51-2.38,1.21S267.32,455.3,267.45,454.81Z" transform="translate(-0.43 -1)"/><path d="M298.4,449.07c-1.1.8-1.2,2.17-1.33,4s-.28,3.74,1.08,5a3.83,3.83,0,0,0,2,.92,4.91,4.91,0,0,0,1.54-.89c2.58-2.27,2.6-7.74.25-9.2A3.35,3.35,0,0,0,298.4,449.07Z" transform="translate(-0.43 -1)"/></g></svg>