<svg xmlns="http://www.w3.org/2000/svg" viewBox="0 0 500 528.06"><defs><style>.cls-1{fill:#57ceea;}.cls-2{fill:#f15a29;}.cls-3{fill:#fff;}.cls-4{fill:#d2f4ff;}</style></defs><title>adelie</title><g id="Layer_13" data-name="Layer 13"><rect class="cls-1" width="500" height="528.06"/></g><g id="Layer_11" data-name="Layer 11"><path d="M339.91,198.56c8.76,11.68,15.51,21.27,20.27,28.2,3,4.36,5.39,7.93,6.23,9.2,4.93,7.41,8.9,13.69,12.8,19.85a441.94,441.94,0,0,1,26.11,50,23.33,23.33,0,0,1,.9,2.94c.29,1,.37,1.49.17,1.95a2.06,2.06,0,0,1-2,1.18c-1.26-.23-1.78-2.52-2.05-3.54-1-3.78-3.57-6.95-5.08-10.55-2.2-5.24-13.82-25.49-34.66-48.76-13.93-15.55-18-19.95-20.9-30.07A54.11,54.11,0,0,1,339.91,198.56Z" transform="translate(0 21.75)"/><path class="cls-2" d="M198.5,71.75a86.37,86.37,0,0,0-10-1.42,29.33,29.33,0,0,0-7.6,0A24,24,0,0,0,176,71.66c-4.9,1.22-5.61,2.92-5.76,3.63-.74,3.56,7.36,8.08,10.57,9.87a47,47,0,0,0,8.58,3.72,2.13,2.13,0,0,0,1.48.86Q194.43,89.83,198.5,71.75Z" transform="translate(0 21.75)"/><path d="M205.29,214.71A174.15,174.15,0,0,0,171,234.5c-6.15,4.55-10,7.47-14.5,12.25-14.95,15.9-24.95,42.13-16.5,51.34.79.87,2.32,2.54,4.25,2.41,7.6-.49,2.34-28.08,18-45.5,12.41-13.81,28.11-10.24,38.25-27.62A41.66,41.66,0,0,0,205.29,214.71Z" transform="translate(0 21.75)"/><path class="cls-3" d="M346.06,215.14c2.51,2.67,6.07,6.61,10,11.62,7.25,9.12,10,14.38,18.86,29.05,0,0,17,28,27.93,51.49.62,1.33,2,4.23,1.46,4.56-1,.66-8.83-9.66-12.41-14.41-21.6-28.69-19.41-33.16-31.25-43.34-7.79-6.7-12-8-14.95-14.61C342,231,343.79,221.78,346.06,215.14Z" transform="translate(0 21.75)"/><path d="M183.83,86.67a94.1,94.1,0,0,1,13,9.83c6.07,5.48,9.11,8.21,11.5,13,1.78,3.54,1.52,4.79,4.84,13.67,1.32,3.53,2.51,6.4,3.33,8.33a27.19,27.19,0,0,1,2.17-5.33c.64-1.22,4.2-7.87,10.16-10.67,8.21-3.85,17.58,1.2,19.67,2.33,8.33,4.5,7.81,9.36,19.67,23,4,4.65,8,8.43,16,16,14.31,13.59,14.21,11.69,17.33,16.17,4.22,6.05,3.33,8,12,28.75,4,9.54,3.44,7.39,4.75,11,5.73,15.82,4.24,24.3,11.25,36.5a55.28,55.28,0,0,0,4,6,47.05,47.05,0,0,0,.5-10.75c-.67-9.83-4.64-18.15-6.25-21.5-3.7-7.71-6-9.24-5.26-12.7,1-4.33,5.34-5,9.18-9.3,3.05-3.4,6-9.4,5.21-20.72-10.33-19.09-14.9-25.84-17.1-28.2-.38-.41-2.43-2.55-4.92-5.75-1-1.23-2-2.62-3-4.19A81,81,0,0,1,306,132a95.42,95.42,0,0,1-5.11-13.33c-2.38-7.39-8.43-32.21-11.89-37.17-4.12-5.91-10.54-9.68-12.25-10.75a50.32,50.32,0,0,0-7.75-4c-1.38-.57-5.36-2.12-16.5-3.75-8.83-1.29-13.34-1.92-18.25-1.25a45.6,45.6,0,0,0-10.5,2.75c-5.87,2.38-6.65,3.79-8.75,4.85a14.48,14.48,0,0,1-2.5.9,28,28,0,0,1-8.17.48c-4.7-.09-11,1.56-11.58,4.27-.45,2,2.41,3.36,1.75,5.5-.43,1.39-2.17,2.17-4,3-1.31.59-1.74.54-3.22,1.17A17.33,17.33,0,0,0,183.83,86.67Z" transform="translate(0 21.75)"/><path d="M331.34,173.83c2.23,0,4,3.1,5.54,6.45,6.87,14.44,6.95,24.3,10,41.72,2.32,13.14,4.15,18.19,8.25,41.6.17.94.3,1.74.42,2.4,3,17.63,4.54,26.7,5.28,39,.63,10.67.43,19.11-.26,32.87-3.68,74-10.58,86.78-17.71,95-6.4,7.34-14.63,13.33-16.05,12.14-1.92-1.61,9.8-15.56,18.4-35.69,7.55-17.65,9.4-32.31,10.87-44,2.33-18.4,8.39-66.5-15.53-111-10.18-18.94-20.87-28.59-20.67-48.33C320.05,191.66,326,173.81,331.34,173.83Z" transform="translate(0 21.75)"/><path class="cls-3" d="M213,147.25a23.28,23.28,0,0,0,3.5-9.25,27.32,27.32,0,0,0,0-6.5c-.21-6.23,5.67-13.26,12.33-16,7.86-3.23,15.34.3,19.67,2.33,8.22,3.86,13.1,10,18.4,16.77,3.83,4.85,9.79,13.53,14.8,17.65.35.29,1.88,1.52,3.85,3.32,1.67,1.53,3.22,3.07,5.05,5A110.68,110.68,0,0,1,301.5,173c.6.83,1.12,1.58,1.62,2.41,4.53,7.5,7.65,15.8,12.13,29.38,3.81,11.54,5.46,17.39,5.93,18.5,2.5,5.9,4.78,9.78,9.29,20.22,1.3,3,2.34,5.54,3,7.24a27.69,27.69,0,0,0,.5-6.25c-.22-6.08-2.47-10-2-10.2.81-.42,6.17,6.67,11,16.2,9.56,18.89,11.83,37.14,13.42,49.94.82,6.6,1.25,13.24,1.29,13.87.45,7.1.46,12.68.47,16.4,0,41.29-10,82.82-16,104.64a18.23,18.23,0,0,1-4.79,7.84c-4.12,3.85-9.15,4.53-15.67,5.14-15.28,1.45-24.5,1.42-24.5,1.42-13.79,0-20.68-.06-28-1-14.29-1.83-20.6-4.79-23-6a37.35,37.35,0,0,1-12.25-9c-4.05-4.66-5.67-9.19-7.5-14.5-6.12-17.72-9.18-26.58-9.5-27.75a380.93,380.93,0,0,1-8.25-37.5c-1.45-8.88-2.07-14.6-4.25-37-2.8-28.71-4.2-43.06-4.75-50-.81-10.25-2.7-35.25-1.5-57.75a134.17,134.17,0,0,1,1.36-13.69c.93-6.08,2.16-11.3,6.39-25.56C207.79,164,210.13,156.23,213,147.25Z" transform="translate(0 21.75)"/><path class="cls-4" d="M224.25,88.25a4.45,4.45,0,0,0,.17,2.67,8.14,8.14,0,0,0,2.16,3.91,5.28,5.28,0,0,0,7,1.09,8.46,8.46,0,0,0,3.84-4.42,9.69,9.69,0,0,0-2.09-2.58,12.85,12.85,0,0,0-4.66-2.34c-1.83-.65-2.76-1-3.67-.75A3.89,3.89,0,0,0,224.25,88.25Z" transform="translate(0 21.75)"/><circle cx="230.76" cy="113.02" r="3.02"/><path class="cls-3" d="M205.29,214.71q-2.94,2-6,4s-2.81,1.87-5.57,3.65c-9.85,6.33-27.22,15.37-37.25,24.37a110.12,110.12,0,0,0-7.92,8.11,61.16,61.16,0,0,0-4,5.11c-.42.6-.58.87-1.17,1.75-2.06,3.08-3.64,5.27-4.15,6a90.89,90.89,0,0,0-6.73,11.67c-3.92,8.56-5.7,22.39,1,30,1.06,1.2,3.59,4.07,6.75,3.89,3.83-.21,6.37-4.78,7.75-7s8.19-8.09,21.63-19.5c17.26-14.66,23.74-17,26.37-17.87,4.64-1.52,5.09-1.25,6.88-2.38C209.42,262.34,213.22,249.51,205.29,214.71Z" transform="translate(0 21.75)"/><path class="cls-2" d="M246.25,437.5c.41,3.13,1.2,10.45,0,16a5.44,5.44,0,0,1-1.5,3c-1.71,1.59-4.13,1.19-7.5,1-4.61-.26-8.12-.45-11.5.5-3.77,1.06-6.21,3.23-8.5,5.25-4,3.52-7.12,8.11-6.5,8.75.45.46,2.13-1.92,5.75-3,6.53-1.95,10.95,2.87,15.6,0,1.16-.72.7-.9,2.4-2.25,4.05-3.21,7.77-2.17,10.25-4,6.95-5.11,10.6-16.72,6.25-22.25A9.21,9.21,0,0,0,246.25,437.5Z" transform="translate(0 21.75)"/><path class="cls-2" d="M228.38,476.88a9.61,9.61,0,0,1,1-4,17.7,17.7,0,0,1,5.12-6.13c2.79-2.31,4.46-3.69,7.25-4.37a14.45,14.45,0,0,1,10,1.37c2,1,4.65,2.32,4.88,4.63s-2.09,4.21-2.88,4.87a11.16,11.16,0,0,1-4.62,2.13,19.49,19.49,0,0,1-6.13.5c-1.8-.15-2-.42-3-.25-2,.31-2.89,1.58-4.31,2.48s-3.48,1.59-7.06,1A8.79,8.79,0,0,1,228.38,476.88Z" transform="translate(0 21.75)"/><path class="cls-2" d="M253.3,470.92a6.89,6.89,0,0,1,1.45-3.32c1-1.18,2.22-1.34,3.5-2.05,5.21-2.84,5.82-4.54,8.5-4.55a6.36,6.36,0,0,1,4.13,1.25,5.81,5.81,0,0,1,1.75,6.63,5.43,5.43,0,0,1-2.63,2.37c-2.11,1-8.88,4.41-10.62,5.13-3.15,1.29-3.47,3.4-4.63,3.12C253.05,479.09,252.61,474.29,253.3,470.92Z" transform="translate(0 21.75)"/><path class="cls-2" d="M272.86,465.36c-1.78-4.73-3.79-6.32-5.36-6.86a5.58,5.58,0,0,1-2.41-1.39c-.85-.91-.81-2.12-.84-3.61-.08-4.21-.17-12.75-.62-13.75-2.38-5.22-16.89-4.45-17.38-2.25-.19.83,1.79,1.1,2.75,3.5s-.67,3,0,7c.13.74.44,2.45.75,4.88.24,1.88.24,2.34,0,2.87-.69,1.51-2.26,1.24-3.62,2.75a6.17,6.17,0,0,0-1.38,4.25c.18,3.8,4.06,5.89,4.41,6.07,1.1.57,1.72.58,7.37.73,4.88.13,6.46.18,7.76-.06.45-.09.78-.19,1-.24A22,22,0,0,0,272.86,465.36Z" transform="translate(0 21.75)"/><path class="cls-2" d="M302.6,438.61c.41,3.13,1.21,10.45,0,16a5.37,5.37,0,0,1-1.5,3c-1.7,1.59-4.12,1.19-7.5,1-4.61-.26-8.11-.45-11.5.5-3.77,1.06-6.21,3.23-8.5,5.25-4,3.52-7.12,8.11-6.5,8.75.46.46,2.14-1.92,5.75-3,6.54-1.95,11,2.87,15.6,0,1.16-.72.7-.9,2.4-2.25,4.06-3.21,7.77-2.17,10.25-4,7-5.11,10.6-16.72,6.25-22.25A9.18,9.18,0,0,0,302.6,438.61Z" transform="translate(0 21.75)"/><path class="cls-2" d="M284.73,478a9.79,9.79,0,0,1,1-4,17.83,17.83,0,0,1,5.12-6.13c2.8-2.31,4.47-3.69,7.25-4.37a14.43,14.43,0,0,1,10,1.37c2,1,4.65,2.32,4.88,4.63s-2.09,4.21-2.88,4.87a11,11,0,0,1-4.62,2.13,19.49,19.49,0,0,1-6.13.5c-1.8-.15-2-.42-3-.25-2,.31-2.88,1.58-4.3,2.48s-3.49,1.59-7.07,1A8.79,8.79,0,0,1,284.73,478Z" transform="translate(0 21.75)"/><path class="cls-2" d="M309.65,472a6.89,6.89,0,0,1,1.45-3.32c1-1.18,2.22-1.34,3.51-2,5.21-2.85,5.82-4.55,8.49-4.56a6.35,6.35,0,0,1,4.13,1.25A5.8,5.8,0,0,1,329,470a5.43,5.43,0,0,1-2.63,2.37c-2.1,1-8.87,4.41-10.62,5.13-3.15,1.29-3.46,3.4-4.63,3.12C309.41,480.2,309,475.4,309.65,472Z" transform="translate(0 21.75)"/><path class="cls-2" d="M329.21,466.47c-1.78-4.73-3.79-6.32-5.36-6.86a5.51,5.51,0,0,1-2.4-1.39c-.86-.91-.82-2.12-.85-3.61-.08-4.21-.17-12.75-.62-13.75-2.37-5.22-16.88-4.45-17.38-2.25-.18.83,1.79,1.1,2.75,3.5s-.67,3,0,7c.13.74.45,2.45.75,4.88.25,1.88.24,2.34,0,2.87-.68,1.51-2.25,1.24-3.62,2.75a6.17,6.17,0,0,0-1.38,4.25c.18,3.8,4.07,5.89,4.41,6.07,1.1.57,1.73.58,7.37.73,4.89.13,6.47.18,7.77-.06.45-.09.78-.19,1-.24A21.93,21.93,0,0,0,329.21,466.47Z" transform="translate(0 21.75)"/></g></svg>