<svg xmlns="http://www.w3.org/2000/svg" viewBox="0 0 499.57 499.57"><defs><style>.cls-1{fill:#648ba8;}.cls-2{fill:#fff;}.cls-3{fill:none;stroke:#000;}.cls-3,.cls-4{stroke-miterlimit:10;}.cls-4{stroke:#fff;stroke-width:0.25px;}</style></defs><title>african</title><g id="Layer_13" data-name="Layer 13"><rect class="cls-1" width="499.57" height="499.57"/></g><g id="Layer_18" data-name="Layer 18"><path d="M300.7,107.08c5.21-4.73,7.81-7.1,10.67-10.66C316,90.69,316.61,88,321,84.75c4.81-3.5,7.35-2.69,8.84-5.11,2.75-4.45-2.38-11.77-8.18-20.22-4.43-6.48-7.55-10.9-13.58-13.92a33.8,33.8,0,0,0-10.5-3c-5.51-.9-9.59-.58-16.5,0-8.57.72-12.86,1.08-16.5,2.5a36.14,36.14,0,0,0-14,10.25,47.72,47.72,0,0,0-11.5,26c-.86,7.1-2.94,24.25,9.25,35,10,8.83,24.76,9,34.25,5C287.34,119.24,291.79,115.19,300.7,107.08Z" transform="translate(-0.43)"/><path class="cls-2" d="M319.09,54.9c-.75-.39-1.91-1-3.26-1.89a30.75,30.75,0,0,1-2.92-2.08c-2-1.65-3.54-2.89-3.87-3.18-2.84-2.47-7.53-4.42-11.42-5.25a36.69,36.69,0,0,0-12.47-.32h0s-9-.08-15.66,2.82c-.53.23-1,.46-1,.46-1,.52-1.76,1.11-5.06,3-8.31,4.85-12.51,7.2-12.82,6.76s3.22-3.54,5.31-5.17a47.59,47.59,0,0,1,4.69-3.18,41.6,41.6,0,0,1,6.51-3.35c2.82-1.11,5.29-1.46,10.24-2.18a72,72,0,0,1,8.87-.87,48.1,48.1,0,0,1,8.75.37A38.44,38.44,0,0,1,310.63,47,37.09,37.09,0,0,1,319.09,54.9Z" transform="translate(-0.43)"/><path d="M242.52,68.05a63.44,63.44,0,0,0-6.65,18.2,64.68,64.68,0,0,0-1.17,13.67c0,9.85-.11,22.07-.5,38.66l8.1.48a33,33,0,0,0-1.76-12.48c-1.29-3.66-2.49-4.89-3.5-8-1.21-3.69-1-6.59,0-14.66,1.56-12.5,3.24-22.57,3.74-25.55Z" transform="translate(-0.43)"/><path d="M143.37,352.08a196.46,196.46,0,0,1-12.5,17.67c-6.88,8.66-8.6,9.36-11.83,15.17-3.86,6.93-3.58,9.87-7.67,15a33.4,33.4,0,0,1-10,8.33,20.08,20.08,0,0,0,12.33-2.5,22.19,22.19,0,0,0,6-5.5c.07.06-2.27,3.12-12.33,15.67a39.11,39.11,0,0,0,19.17,3c10.77-1.2,13.24-6.62,26.5-12,17.74-7.21,24.69-2.11,30.54-9.21s5.14-20.08,0-28c-6.07-9.31-18.76-12.46-35-16.5C146.42,352.72,144.64,352.34,143.37,352.08Z" transform="translate(-0.43)"/><path d="M320,156.26a23.3,23.3,0,0,0-4.33-13.51c-3.55-4.68-9.26-7.71-30.5-9.5-27.83-2.35-41.75-3.52-50.92,5.33-3.38,3.27-7.16,8.85-10.08,13.17a147.89,147.89,0,0,0-8.75,14.75c-6.7,12.57-13.09,19.78-20.25,29.75-14.81,20.61-23.87,40.37-27.75,48.83a288.16,288.16,0,0,0-18.5,53.67c-6.89,29.08-10.57,43.56-5.5,56.5,8.39,21.41,33.72,38.51,56.18,35.89s36.81-24.24,53.82-56.89C273.91,294.82,300,235.89,320,156.26Z" transform="translate(-0.43)"/><path d="M307.26,225.45a132.92,132.92,0,0,1,13.44,27.3c3.17,8.88,6.93,19.77,6.34,34-.41,9.79-2.66,15.58-4.34,19-1.92,3.91-6.71,13.67-13.33,13.67-5.13,0-8.93-5.89-12.67-11.67-5-7.79-4.41-11.5-10.22-21.67-3.48-6.09-5.09-7.19-6.26-9.51C276.68,269.58,279.26,255.73,307.26,225.45Z" transform="translate(-0.43)"/><path class="cls-2" d="M315.62,158.76c1.18-1.1,3.49-3.07,4.33-2.5.44.3.33,1.22-.41,5.24-.5,2.68-.74,4-.84,4.42-1.23,5.19-1.77,14.56-2.16,20.16-.43,6.07-1.15,12.11-1.67,18.17-.84,9.68-3.48,26-11.25,55.25q-23.55,57.06-47.08,114.12a42.47,42.47,0,0,0-8,2.27c-6.62,2.6-8.37,5.53-13.75,7.94-5.87,2.63-10.77,3.25-16.05,3.92-10,1.27-11.75-2.26-18.83,0-3.58,1.14-5,2.51-10,3.67a39.6,39.6,0,0,1-9.34,1,208.12,208.12,0,0,0-2.83-24.5c-2.59-14.78-5.21-19.18-5.83-29.34-.53-8.65.54-12.1,3.17-30.16,4.69-32.36,2.8-31.88,6.33-45.34,0,0,5.94-22.61,19.76-34.23a9.59,9.59,0,0,1,3.88-2.24c6.76-1.68,11.48,7.06,18.69,6.14,2.77-.35,4.58-2,6.73-3.89,7.63-6.8,5-14.71,11.69-21.2,2.72-2.64,7.2-6.15,9.25-4.91,2.39,1.44,1.24,9.18-1.81,15.12-3.6,7-7.34,6.62-14.86,15.88-5.59,6.88-4.47,8.27-8.33,11.33-7.36,5.84-13.21,2.22-20.33,5.67-5.81,2.81-7.76,8-16.67,38.33-8.13,27.64-8.47,29.94-8.67,33-1.24,18.91,3.27,38.32,7,38.34,2.1,0,3.45-6.13,5-11.34,6.58-22,17.05-27.7,32.34-50.66,10-15.08,16-29.16,28-57.34a369,369,0,0,1,21.33-41.66c4.18-7,6.1-9.65,8.28-12.17,7.15-8.29,13.05-10.78,26.05-22.17C311.78,162.38,314.19,160.12,315.62,158.76Z" transform="translate(-0.43)"/><path class="cls-2" d="M305.37,67.05a9.84,9.84,0,0,0,4.37-4.87,10.18,10.18,0,0,0,0-6.88c-2.29-7.61-11-10.11-11.34-10.21a27.63,27.63,0,0,0-6.53-.54,82.49,82.49,0,0,0-12.13.75c-11.7,1.28-11.15.4-14.6,1.21-8.39,2-13.78,7.71-16,10.12-9.71,10.31-10.77,23.63-12.32,43-.51,6.41-.88,11.39,0,18.17,1.1,8.41,2.18,16.79,7.84,24.67,2.6,3.63,4.85,5.29,5.5,9.25.78,4.79-1.47,8.69-3.25,12-5.54,10.26-14.88,27.55-10.25,33.25,2.11,2.59,5.9,1.26,7,4,1.23,3.1-3.13,5.63-3.76,12.21-.24,2.45-.13,7.33,2,8.25,3.79,1.64,12.25-10.09,14-12.5,8.91-12.36,7.17-16.56,13.75-26.75,3.76-5.84,10.81-11.81,24.75-23.5,8.55-7.18,15.86-12.86,21-16.75a48.5,48.5,0,0,0-4-8.5c-2.17-3.64-2.88-3.74-5-7.25a41.84,41.84,0,0,1-5-12,36.22,36.22,0,0,1-.92-7.92c-5.12-.83-9.49-1.42-12.83-1.83-10-1.24-11.71-1-13.5-.25-3.86,1.6-4.1,3.9-8.27,4.77a13.45,13.45,0,0,1-7.73-.77c-1.57-.64-4.7-1.92-5.75-4.75-.79-2.13.15-3.64.75-6.75.88-4.65-.21-6.56-.25-10.5-.11-9.8,6.41-18,10.75-23.5a56.62,56.62,0,0,1,5.75-6.25,5.31,5.31,0,0,1,3.87,1.37c1.43,1.51.69,3.37,1.38,6.63.39,1.86,1.11,5.28,3.62,6.87,3.05,1.93,7.61.49,10.25-1.62a9,9,0,0,0,3.38-4.88c.74-3.36-1.45-5.54,0-7.75a4.62,4.62,0,0,1,2.62-1.75c3.46-1.13,6.56,1.36,6.88,1.63.07,1.83.44,3.78,1.67,4.34,1,.47,2-.33,2.7.16S306.62,63.21,305.37,67.05Z" transform="translate(-0.43)"/><path d="M189.32,404q5.35,15.23,10.72,30.46c10.53,6.78,27.21,14.78,46.83,12.83,2-.2,3.88-.49,5.73-.85s2.87-.27,2.94-.65-1.54-1.19-3-1.73a32.7,32.7,0,0,0,21.16,1.4h7.67c.59-.28,1.35-.73,1.33-1.25,0-1.62-7.28-2.32-7.25-2.92s10-.67,19.42-.5c.75-.65.87-1.12.83-1.44-.17-1.2-3-1.86-11-2.94-3.44-.46-5.17-.69-8.12-1-8.35-.85-10.09-1.95-19.5-3.5-2.94-.48-7.3-.94-16-1.87-8.19-.87-13.08.44-20.13-2a36,36,0,0,1-5.62-2.5A52.8,52.8,0,0,1,212,400.73Z" transform="translate(-0.43)"/><path d="M278.62,65.25c.35-1,1.51-1.28,2.79-1.62,1.48-.38,4.34-1.12,6.83.49.42.27,2.18,1.41,2,2.63s-2.52,1.91-3.93,2.27a9,9,0,0,1-4.82,0,4.07,4.07,0,0,1-2.18-1.26A3,3,0,0,1,278.62,65.25Z" transform="translate(-0.43)"/><path class="cls-3" d="M198,434.75" transform="translate(-0.43)"/><path d="M226.75,393.12c.43,1.38.87,2.75,1.3,4.13,2.66,4.72,8.93,26.8,9.19,30.12a111.72,111.72,0,0,0,12.89,4.55,28.72,28.72,0,0,0,3.28.83c17.46,2.17-2.13.4,21.31,2.91,6.45.69,12.06,1.27,16.55,1.72a7.54,7.54,0,0,0,0-3c-.88-4.11-5.36-6.61-6.78-7.4s-2.6-1.58-3.94-2.28h0c-2.1-1.26-5.12-.56-5.18,0,0,.31.83.6,17.87,4.53,6,1.37,9,2.05,9.25,1.37.41-.95-4.15-3.75-5.56-4.62-3.82-2.34-10-6-18.19-6.34-1.05,0-.22,0-6.47.26s-9.25.41-11.25,0a24.3,24.3,0,0,1-10.15-4.84,58.28,58.28,0,0,1-2.28-7.1,59.55,59.55,0,0,1-1.81-14.59c-.92.05-1.85.1-2.78.13A141,141,0,0,1,226.75,393.12Z" transform="translate(-0.43)"/><path class="cls-2" d="M180.53,392.42c.38,1.24,3.26,10.06,12.17,13.5,6.72,2.58,16.12,1.84,19.5-3.17,1.25-1.85.38-2.35,1.6-5.26,3.22-7.7,11.06-8.33,11.49-13,.24-2.62-1.92-4.85-3.42-6.2-8.55-7.71-28.56-9.85-37.33,1.25C181.1,383.84,180.53,389.06,180.53,392.42Z" transform="translate(-0.43)"/><path class="cls-2" d="M220.59,381.74c-1.31,7.16,3,16.47,10.66,18.76,5.58,1.66,10.71-1,12.42-1.94,1.89-1,4.63-2.37,6-5.31,1.1-2.31.47-3.64.73-6.5.5-5.43,3.37-7,6.11-13.13a36.75,36.75,0,0,0,3-11.75c-8.34-17.75-11.92-20.86-13.65-20.37-4.16,1.18,1.5,23.49-8.17,29.08-4.51,2.61-10.13.2-14.31,5A12.79,12.79,0,0,0,220.59,381.74Z" transform="translate(-0.43)"/><path class="cls-4" d="M230.63,205.49c1.42,1-4.34,8.3-8,20.5-4.46,14.85-2.81,27.09-2,35,4.82,47.15-4.47,94.2-20,112.54-1.38,1.62-6,7.06-8.49,6-2.22-1-1.64-6.61,0-20.51,2.79-23.64,3.24-25.75,3.5-31.5.45-10-.64-17.34-2-26.5-2.68-18.08-9.66-21.49-8-33,.75-5.2,2.83-9.3,7-17.5a122.83,122.83,0,0,1,12.5-19.5C214.66,218.55,228.54,203.93,230.63,205.49Z" transform="translate(-0.43)"/><path d="M312.46,53.6l36.16,6.15a18.34,18.34,0,0,1,5.75,4.5c1.57,1.87,3.22,3.5,3.46,6a5.29,5.29,0,0,1-.64,3.37,7.24,7.24,0,0,1-2.32,1.87c-2.64,2.1-13.84,2.83-18.5,3.5A39.88,39.88,0,0,0,325,82.49Q318.69,68,312.46,53.6Z" transform="translate(-0.43)"/><path d="M228.64,204.17a8.33,8.33,0,0,0,2.4,3.89c.59.55,3.24-.54,2.72-1a7.68,7.68,0,0,1-2.22-3.65c-.2-.72-3.1.06-2.9.78Z" transform="translate(-0.43)"/></g></svg>