<svg xmlns="http://www.w3.org/2000/svg" viewBox="0 0 1033.88 1155.55"><defs><style>.cls-1{fill:#57ceea;}.cls-2{fill:#fff;}.cls-3,.cls-5{fill:none;}.cls-3{stroke:#000;}.cls-3,.cls-4,.cls-5{stroke-miterlimit:10;}.cls-4,.cls-5{stroke:#fff;stroke-width:0.25px;}</style></defs><title>african</title><g id="Layer_6" data-name="Layer 6"><path d="M-246.94,862c7.59,31.71,26.38,56.39,49.64,60.3,18,3,33.59-7.22,54.43-20.9,18.07-11.86,34.38-22.56,44-43.63,0,0,13.84-30.41,2-72.14-.71-2.5-3.95-13.15-8.8-25.9-1.12-3-1.68-4.44-2-5.12-7.84-15.66-18.29-12.55-28-31.56a92.76,92.76,0,0,1-9.35-31.57c-1.48-11.61-13.09-28.56-59.57-51.07a85.89,85.89,0,0,1,19.83-11.61c31.33-13.06,61.3-3.26,71.38,0,33.21,10.86,52.36,33.32,62,45.32,18.73,23.27,27,45.41,35.72,74.27C16.5,855.24,32.25,909.08,15,930-1,949.48-26.19,947.53-47.27,981.13a93.92,93.92,0,0,0-12.45,29.71c-6.21,28.46,3.62,52.24,8.3,61.89L-71.62,1038A104.29,104.29,0,0,1-88,1065.31c-20.71,24.83-44,28.4-49.84,49.51-2.67,9.73.35,19,0,19-.55,0,.47-23.13-9.14-47-4.47-11.14-11.4-20.67-15.35-26.43-10.55-15.35-14.67-16.84-17.87-24.73-6.91-17,9.58-26.61,4.15-40.44-5.22-13.32-21.29-17-32-22.69C-226.59,962.58-245.26,935.7-246.94,862Z" transform="translate(303.71 21.75)"/><path d="M-194.15,646.45a62.9,62.9,0,0,0-15.83,8c-12.31,8.66-18,19.5-23.5,30-1.4,2.67-11.14,21.52-12,35.5a106.85,106.85,0,0,1-2,16c-.63,3.15-1.05,4.46-1.5,6.5a67.84,67.84,0,0,0-1,21c1,13.39-2,25.39-3,35.5-2.29,22.71,2.82,59.79,14.8,92.49,17.33,47.29,39.77,60.06,31.7,81-5.84,15.17-20.23,15.28-23.5,32.5-3.41,18,11.07,24.28,7,42.5-3.63,16.26-17.38,21.22-15.5,34,1,7,6.15,12.16,10.5,15.5a118.51,118.51,0,0,1-42.5-27c-5.77-5.72-21.34-21.51-29-47-7.27-24.19-3.73-44.8,0-66.5,3.89-22.62,7.47-22.42,10-41.5,3.88-29.17-3.61-36.26-3-62,.71-29.91,11-28.34,24-81.5,6.37-26.05,5.2-31.75,14.26-66.64,6.55-25.26,11.69-39.67,24.24-52.36,9.82-9.92,26.51-21.13,33-16.5C-194.12,638-193.86,642.66-194.15,646.45Z" transform="translate(303.71 21.75)"/><path d="M-253.65,750.56a16.37,16.37,0,0,1,4.67-8.09c9.16-8.34,26.47-1.84,31.38,0a55.31,55.31,0,0,1,12.29,6.5c-.15,3.11-.31,6.21-.46,9.31-.06,3.83-1.38,5.83-2.21,6.79-4.25,4.91-14.65,4.59-21.28,1.41-1.81-.86-3.58-2.05-6.63-2.43a18.53,18.53,0,0,0-7.61.92c-7.14,2.1-9.12,5.25-10.81,4.5C-255.81,768.81-256.86,765.19-253.65,750.56Z" transform="translate(303.71 21.75)"/><path d="M-171,758a43.92,43.92,0,0,1,12.5-7c6.25-2.24,13.84-5.2,21.5-2,6.84,2.86,10.2,9.09,11.51,12-.53,3.22-2.15,9.74-7.51,13-4.32,2.64-9.38,1.76-19.5,0-5.66-1-8.54-1.51-11.32-3.56C-169,766.56-170.51,760.54-171,758Z" transform="translate(303.71 21.75)"/><path d="M-220.33,856.31c-3.23-3.31-4.44-7.69-3-11.1,1.73-4.08,6.6-5.16,7.76-5.41,4.91-1.09,6.57,1.51,12.47,1.38s7-2.7,11.27-3c3.76-.23,9.38,1.37,16.79,10.55l10.84,7.81c-8,5-15,8.73-20.14,11.34-11,5.55-14.71,6.6-18.74,6.3-5.69-.41-13.56-2.5-15-7.25-.58-1.91.92-3.64,0-6.75A10,10,0,0,0-220.33,856.31Z" transform="translate(303.71 21.75)"/><path d="M-220.51,796.39a14.27,14.27,0,0,0,2.13,7.46c2,3.19,6.4,6.65,10.5,5.07a8.57,8.57,0,0,0,4.25-4.28,9,9,0,0,1,4.89-3.15c3.33-.71,6,1.18,8.31,2.83s4.71,3.36,4.54,5.39c-.27,3.13-6.61,4.55-7.25,4.68-2.27.49-3.45.21-9.21-.55-8.92-1.18-9.45-1-11.64-1.9-2.83-1.24-6.39-2.79-7.65-6.67S-221,797.38-220.51,796.39Z" transform="translate(303.71 21.75)"/></g><g id="Layer_13" data-name="Layer 13"><rect class="cls-1" x="265.34" width="768.54" height="626.97"/></g><g id="Layer_18" data-name="Layer 18"><path d="M277.33,137.33c5.21-4.73,7.81-7.1,10.67-10.66,4.59-5.73,5.24-8.45,9.67-11.67,4.81-3.5,7.35-2.69,8.84-5.11,2.75-4.45-2.38-11.77-8.18-20.22-4.43-6.48-7.55-10.9-13.58-13.92a33.8,33.8,0,0,0-10.5-3c-5.51-.89-9.58-.58-16.5,0-8.57.72-12.85,1.08-16.5,2.5a36.24,36.24,0,0,0-14,10.25,47.75,47.75,0,0,0-11.5,26c-.86,7.1-2.94,24.25,9.25,35,10,8.83,24.76,9,34.25,5C264,149.49,268.43,145.44,277.33,137.33Z" transform="translate(303.71 21.75)"/><path class="cls-2" d="M295.72,85.15c-.74-.39-1.9-1-3.26-1.89a30.75,30.75,0,0,1-2.92-2.08c-2-1.65-3.54-2.89-3.87-3.18-2.84-2.47-7.53-4.41-11.42-5.25a36.69,36.69,0,0,0-12.47-.32h0s-9-.07-15.65,2.82c-.53.23-1,.46-1,.46-1,.52-1.76,1.11-5.06,3-8.31,4.85-12.51,7.2-12.82,6.76s3.23-3.54,5.31-5.17a47.59,47.59,0,0,1,4.69-3.18,41.6,41.6,0,0,1,6.51-3.35c2.82-1.11,5.29-1.46,10.24-2.17a70,70,0,0,1,8.88-.88,47.4,47.4,0,0,1,8.75.38,38.33,38.33,0,0,1,15.63,6.07A37.09,37.09,0,0,1,295.72,85.15Z" transform="translate(303.71 21.75)"/><path d="M219.15,98.3a63.74,63.74,0,0,0-6.65,18.2,64.68,64.68,0,0,0-1.17,13.67c0,9.85-.11,22.08-.5,38.66l8.1.48a32.86,32.86,0,0,0-1.76-12.48c-1.29-3.65-2.49-4.89-3.5-8-1.2-3.69-1-6.59,0-14.66,1.56-12.5,3.24-22.56,3.74-25.55Z" transform="translate(303.71 21.75)"/><path d="M120,382.33A196.46,196.46,0,0,1,107.5,400c-6.88,8.66-8.6,9.36-11.83,15.17-3.86,6.93-3.57,9.87-7.67,15a33.4,33.4,0,0,1-10,8.33A20.07,20.07,0,0,0,90.33,436a22.19,22.19,0,0,0,6-5.5c.07.06-2.27,3.12-12.33,15.67a39.11,39.11,0,0,0,19.17,3c10.77-1.2,13.24-6.62,26.5-12,17.74-7.21,24.69-2.11,30.54-9.21s5.14-20.07,0-28c-6.07-9.31-18.76-12.46-35-16.5C123.05,383,121.27,382.59,120,382.33Z" transform="translate(303.71 21.75)"/><path d="M296.58,186.51A23.23,23.23,0,0,0,292.25,173c-3.55-4.68-9.26-7.71-30.5-9.5-27.83-2.35-41.75-3.52-50.92,5.33-3.38,3.27-7.16,8.85-10.08,13.17A147.89,147.89,0,0,0,192,196.75c-6.7,12.57-13.09,19.78-20.25,29.75C157,247.11,147.88,266.87,144,275.33A288.92,288.92,0,0,0,125.5,329c-6.89,29.08-10.57,43.56-5.5,56.5,8.39,21.42,33.72,38.52,56.18,35.89S213,397.15,230,364.5C250.54,325.07,276.64,266.14,296.58,186.51Z" transform="translate(303.71 21.75)"/><path d="M283.89,255.7A133.17,133.17,0,0,1,297.33,283c3.17,8.88,6.93,19.77,6.34,34-.41,9.79-2.66,15.58-4.34,19-1.92,3.92-6.71,13.67-13.33,13.67-5.13,0-8.93-5.89-12.67-11.67-5-7.79-4.41-11.5-10.22-21.67-3.48-6.09-5.09-7.19-6.26-9.51C253.32,299.83,255.89,286,283.89,255.7Z" transform="translate(303.71 21.75)"/><path class="cls-2" d="M292.25,189c1.18-1.09,3.49-3.07,4.33-2.5.44.31.33,1.22-.41,5.24-.5,2.68-.74,4-.84,4.42-1.23,5.2-1.77,14.57-2.16,20.16-.43,6.07-1.15,12.11-1.67,18.17-.84,9.68-3.48,26-11.25,55.25q-23.55,57.06-47.08,114.12a42.47,42.47,0,0,0-8,2.27c-6.62,2.6-8.37,5.53-13.75,7.94-5.87,2.63-10.77,3.25-16,3.92-10,1.27-11.75-2.26-18.83,0-3.58,1.14-5,2.51-10,3.67a40.21,40.21,0,0,1-9.34,1,208.24,208.24,0,0,0-2.83-24.51c-2.59-14.78-5.21-19.18-5.83-29.34-.53-8.65.54-12.09,3.17-30.16,4.7-32.36,2.8-31.88,6.33-45.34,0,0,5.94-22.61,19.76-34.22a9.4,9.4,0,0,1,3.88-2.24c6.77-1.69,11.48,7.05,18.69,6.13,2.77-.35,4.58-2,6.74-3.89,7.62-6.8,5-14.71,11.68-21.2,2.73-2.64,7.2-6.15,9.25-4.91,2.39,1.45,1.24,9.18-1.81,15.12-3.6,7-7.34,6.62-14.86,15.88-5.59,6.89-4.47,8.27-8.33,11.33-7.36,5.84-13.21,2.22-20.33,5.67-5.81,2.81-7.76,8-16.67,38.33-8.13,27.64-8.47,29.94-8.67,33-1.24,18.91,3.27,38.32,7,38.34,2.1,0,3.45-6.13,5-11.34,6.58-22,17-27.7,32.34-50.66,10-15.07,16-29.16,28-57.34A370,370,0,0,1,251,229.67c4.19-7,6.1-9.65,8.28-12.17,7.15-8.29,13.05-10.77,26.05-22.17C288.41,192.64,290.82,190.37,292.25,189Z" transform="translate(303.71 21.75)"/><path class="cls-2" d="M282,97.3a9.84,9.84,0,0,0,4.37-4.87,10.19,10.19,0,0,0,0-6.88c-2.29-7.61-11-10.11-11.34-10.21a27.57,27.57,0,0,0-6.53-.54,82.49,82.49,0,0,0-12.13.75c-11.69,1.28-11.15.4-14.6,1.21-8.38,2-13.77,7.71-16,10.12-9.71,10.31-10.77,23.63-12.32,43-.51,6.41-.88,11.39,0,18.17,1.1,8.41,2.18,16.8,7.84,24.67,2.61,3.63,4.85,5.29,5.5,9.25.78,4.79-1.47,8.69-3.25,12-5.54,10.26-14.88,27.55-10.25,33.25,2.11,2.6,5.9,1.26,7,4,1.23,3.11-3.13,5.63-3.76,12.21-.24,2.46-.13,7.33,2,8.25,3.79,1.64,12.25-10.09,14-12.5,8.91-12.36,7.17-16.56,13.75-26.75,3.77-5.84,10.81-11.81,24.75-23.5,8.55-7.18,15.86-12.86,21-16.75a48.5,48.5,0,0,0-4-8.5c-2.17-3.64-2.88-3.74-5-7.25a41.84,41.84,0,0,1-5-12,36.22,36.22,0,0,1-.92-7.92c-5.12-.83-9.49-1.42-12.83-1.83-10-1.24-11.71-1-13.5-.25-3.86,1.6-4.1,3.9-8.27,4.77a13.45,13.45,0,0,1-7.73-.77c-1.56-.64-4.7-1.92-5.75-4.75-.79-2.13.15-3.64.75-6.75.88-4.65-.21-6.56-.25-10.5-.11-9.79,6.41-18,10.75-23.5A57.56,57.56,0,0,1,246,86.68a5.31,5.31,0,0,1,3.87,1.37c1.43,1.51.69,3.37,1.38,6.63.39,1.87,1.11,5.28,3.62,6.87,3.05,1.93,7.61.49,10.25-1.62a8.92,8.92,0,0,0,3.38-4.88c.75-3.36-1.45-5.54,0-7.75a4.62,4.62,0,0,1,2.62-1.75c3.46-1.12,6.56,1.37,6.88,1.63.08,1.83.44,3.78,1.68,4.34,1,.47,2-.33,2.69.16S283.25,93.46,282,97.3Z" transform="translate(303.71 21.75)"/><path d="M166,434.21q5.36,15.23,10.72,30.46c10.53,6.78,27.21,14.79,46.83,12.83q3-.3,5.73-.85c1.76-.34,2.87-.27,2.94-.65s-1.54-1.19-3-1.73a32.42,32.42,0,0,0,9.65,2.4,33,33,0,0,0,11.5-1H258c.59-.28,1.35-.73,1.33-1.25,0-1.62-7.28-2.32-7.25-2.92s10-.67,19.42-.5c.75-.65.87-1.12.83-1.44-.17-1.2-3-1.86-10.95-2.93-3.45-.47-5.18-.7-8.13-1-8.35-.86-10.09-2-19.5-3.5-2.94-.49-7.3-.95-16-1.88-8.19-.87-13.07.44-20.12-2a35.8,35.8,0,0,1-5.63-2.5A52.58,52.58,0,0,1,188.63,431Z" transform="translate(303.71 21.75)"/><path d="M255.25,95.5c.35-1,1.51-1.28,2.8-1.61,1.47-.39,4.33-1.13,6.83.49.41.26,2.17,1.4,2,2.62s-2.53,1.91-3.94,2.27a9,9,0,0,1-4.81,0A4.06,4.06,0,0,1,255.94,98,3,3,0,0,1,255.25,95.5Z" transform="translate(303.71 21.75)"/><path class="cls-3" d="M155.67,465" transform="translate(303.71 21.75)"/><path d="M203.38,423.37l1.31,4.13c2.65,4.72,8.93,26.8,9.19,30.12a111.09,111.09,0,0,0,12.88,4.55A29.26,29.26,0,0,0,230,463c17.46,2.17-2.13.4,21.31,2.91,6.46.7,12.06,1.27,16.55,1.72a7.54,7.54,0,0,0,0-3c-.88-4.11-5.36-6.61-6.77-7.4s-2.6-1.57-3.95-2.28h0c-2.1-1.26-5.11-.56-5.18,0,0,.31.83.6,17.88,4.53,6,1.38,8.95,2.05,9.25,1.38.41-1-4.16-3.76-5.57-4.63-3.82-2.34-10-6-18.18-6.34-1.06,0-.23,0-6.48.26s-9.25.41-11.25,0a24.3,24.3,0,0,1-10.15-4.84,58.28,58.28,0,0,1-2.28-7.1,59.55,59.55,0,0,1-1.81-14.59c-.92.05-1.85.1-2.78.13A141.06,141.06,0,0,1,203.38,423.37Z" transform="translate(303.71 21.75)"/><path class="cls-2" d="M157.16,422.68c.38,1.23,3.26,10.05,12.17,13.49,6.72,2.58,16.12,1.84,19.5-3.17,1.25-1.85.38-2.35,1.6-5.25,3.22-7.71,11.06-8.34,11.49-13.05.24-2.62-1.92-4.85-3.42-6.2-8.54-7.71-28.56-9.85-37.33,1.25C157.73,414.1,157.16,419.31,157.16,422.68Z" transform="translate(303.71 21.75)"/><path class="cls-2" d="M197.22,412c-1.31,7.16,3,16.47,10.66,18.76,5.58,1.66,10.71-1,12.42-1.94,1.89-1,4.63-2.37,6-5.31,1.11-2.31.47-3.64.73-6.5.5-5.43,3.37-7,6.11-13.13a36.75,36.75,0,0,0,3-11.74c-8.34-17.76-11.92-20.87-13.65-20.38-4.16,1.18,1.5,23.49-8.17,29.08-4.51,2.61-10.13.2-14.31,5A12.79,12.79,0,0,0,197.22,412Z" transform="translate(303.71 21.75)"/><path class="cls-4" d="M207.26,235.74c1.42,1.06-4.34,8.3-8,20.5-4.46,14.85-2.81,27.09-2,35,4.82,47.15-4.47,94.2-20,112.54-1.38,1.62-6,7.06-8.49,6-2.22-1-1.64-6.61,0-20.51,2.79-23.64,3.24-25.75,3.5-31.5.45-10-.64-17.33-2-26.5-2.68-18.08-9.66-21.49-8-33,.75-5.2,2.83-9.3,7-17.5a122.83,122.83,0,0,1,12.5-19.5C191.29,248.8,205.17,234.18,207.26,235.74Z" transform="translate(303.71 21.75)"/><path d="M289.09,83.85,325.25,90A18.34,18.34,0,0,1,331,94.5c1.57,1.87,3.22,3.5,3.46,6a5.16,5.16,0,0,1-.64,3.37,7.1,7.1,0,0,1-2.32,1.87c-2.64,2.1-13.84,2.83-18.5,3.5a40.21,40.21,0,0,0-11.42,3.49Z" transform="translate(303.71 21.75)"/><path class="cls-5" d="M356.22-16.21a17.43,17.43,0,0,1-6.48-.46c-4.43-1.16-6.65-3.55-10.66-3a10.56,10.56,0,0,0-3.5,1.19" transform="translate(303.71 21.75)"/><path d="M205.27,234.42a8.33,8.33,0,0,0,2.4,3.89c.59.55,3.24-.54,2.72-1a7.76,7.76,0,0,1-2.22-3.65c-.2-.72-3.1.06-2.9.78Z" transform="translate(303.71 21.75)"/></g></svg>