<svg xmlns="http://www.w3.org/2000/svg" viewBox="0 0 512.93 528.06"><defs><style>.cls-1{fill:#635663;}.cls-2{fill:#f15a29;}.cls-3{fill:#fff;}.cls-4{fill:#232428;}.cls-5{fill:#3d2513;}</style></defs><title>chinstrap</title><g id="Layer_13" data-name="Layer 13"><rect class="cls-1" width="512.93" height="528.06"/></g><g id="Layer_24" data-name="Layer 24"><path class="cls-2" d="M243.21,434c-2.62,6.81-5.77,9-8.24,9.75-4.1,1.19-6.56-1.66-16.14-2.4a53.88,53.88,0,0,0-8.08,0,53.22,53.22,0,0,0-12.25,2.42,37.91,37.91,0,0,0-7.47-4.31c-3.16-1.38-5.69-2.48-8.78-2.44-5.36.07-9.33,3.56-11,5.25a22.16,22.16,0,0,0,4,2.75c3.62,1.94,5.86,1.82,10.5,4,4,1.9,4.41,3,4.5,3.5.3,1.83-1.7,3.54-2.34,4.05-5,4-6.24,5-6.16,5.95.16,1.83,5.73,2.71,6,2.75,32.86,5.2,32.18,7.46,40.25,6,17.49-3.17,36.53-16.67,34.67-26C262.28,443.22,260.18,437.66,243.21,434Z" transform="translate(3.7 22.26)"/><path class="cls-3" d="M117.5,133a30.11,30.11,0,0,0-2.5,8,58.4,58.4,0,0,0,.19,8.46c0,.49.08.9.1,1.18a78.48,78.48,0,0,0-3.79,19c-.55,7.56.32,11,0,17.83-.54,11.57-4,19.59-5,23-5.61,18.72,5.4,49.31,12,66.5,10.71,27.89,31.85,72.42,74,118.5,7.26,7.94,13.51,14.14,17.51,18,61.85,3.61,81.69-17.85,87.5-25.5,21.76-28.66-4.16-84.77-56-197-21.08-45.62-35.17-69.74-60.5-76C153.61,108.23,121.44,124.4,117.5,133Z" transform="translate(3.7 22.26)"/><path class="cls-3" d="M207.5,390.5c-2.51,4.4,2.34,13.61,12,32,3.13,6,7.44,13.67,15.47,21.23,1,1,1.92,1.75,2.53,2.27l2-4.33c.4,1.34,1,2.64,1.67,2.66,1.19,0,1.8-3.52,3-3.5.94,0,1.45,2.28,2,3.5,1.09,2.42,4.35,5.13,14.16,6A69.29,69.29,0,0,0,272,439.83c2.06-2.33,23.42-26.44,16.49-42.85-7.45-17.65-42.65-14.63-63.82-12.81C215,385,209.77,386.51,207.5,390.5Z" transform="translate(3.7 22.26)"/><path class="cls-3" d="M194.17,394.53l-1.68,1a58.92,58.92,0,0,0,5.16,13.37c1,1.82,2.07,3.57,4.23,7.07,3.54,5.72,3.58,5.4,5.37,8.39,0,0,9.32,15.62,11.58,17,.39.24.8.47.8.47l.83.47c10.45,4.66,14.83,3.72,16.87,1.9,5.73-5.1.22-33.35-19.66-44.75C208.49,394.15,199.09,394.15,194.17,394.53Z" transform="translate(3.7 22.26)"/><path class="cls-3" d="M120.5,141.5A200.09,200.09,0,0,1,109,122.33c-1.86-3.53-2.22-4.51-3.62-6.26-6.72-8.46-17-9.47-16.71-11.24s9.82.64,13.5-3.83c2.74-3.34,1.25-9.29-1-14.67a130.18,130.18,0,0,1,31-6.5c12.09-1,38.24-2.84,61.5,12.5,8.22,5.43,13.76,9.08,14.16,14.84,1,14.37-30.9,30.4-58.16,34.33A103.44,103.44,0,0,1,120.5,141.5Z" transform="translate(3.7 22.26)"/><path d="M141.88,96.94a22,22,0,0,1,4.81-1.19,11.15,11.15,0,0,1,4.82,0,8.85,8.85,0,0,1,4.93,4.13,11.89,11.89,0,0,1-1.81,1.5c-1,.66-3.4,2.24-6,1.73-1.08-.21-2-.88-3.86-2.22a31.74,31.74,0,0,1-3-2.45Z" transform="translate(3.7 22.26)"/><path d="M103.5,86.33l-5.11-2.82A31,31,0,0,1,103,81.75c2.87-.84,5.2-1.12,8-2.5,3-1.46,2.59-2.64,6.5-5.75a41.36,41.36,0,0,1,8.75-5.25,42.45,42.45,0,0,1,11-3,73.89,73.89,0,0,1,20.38-.12c7.64.91,14.77,1.73,23.12,5.75,8.56,4.11,13.87,9.38,17.67,13.21,4.7,4.74,11.85,12,15.54,21.82a40.35,40.35,0,0,0,4.79,9.72c2.29,3.34,4.6,5.18,6.5,7.25,11.15,12.11,15.46,15.66,23.46,24.46,5.31,5.84,8.93,10.37,12.14,14.38,12.77,16,26.4,38.53,26.4,38.53,11,18,25.65,41.81,30.79,59.17.41,1.36,2.21,7.58,5,16.58,2.95,9.66,3.15,9.84,4.57,14.75,3.21,11,4.93,16.95,6.17,25.07.6,3.94,1,8.77,1.76,18.43.76,9.51.51,8.79,1,14.25,1.41,15.72,3.25,18.88,4.13,34,.33,5.63.07,5,.37,7,1.77,11.5,8.9,19.74,13.88,25.49,2.06,2.38,4.18,4.54,8.42,8.86,0,0,4.15,4.25,7.7,7.65,6.18,5.93,38.06,20.39,82.5,36.25l-16-1-71.75-24,54.75,26.5a25.38,25.38,0,0,1-5,1,27.88,27.88,0,0,1-14.25-2.75c-6.46-2.84-23-10.41-45-21.5a44.88,44.88,0,0,0,4.75,5.75,47.31,47.31,0,0,0,18.25,11.5,33.36,33.36,0,0,1-17.5-5.5,32.94,32.94,0,0,1-10-10.5,22.83,22.83,0,0,0,3,8.25c4.81,7.95,13.46,9.75,13.25,10.25s-13.86-1.14-22.5-12a30.88,30.88,0,0,1-4.53-7.84,107.65,107.65,0,0,1-14.72,4.59c-25.52,6-48,1.48-62.25-3,9.95-12.66,13.11-17,13.83-18.28.11-.2,1.64-2.86,2.2-3.8s.58-.93,1-1.69a61.92,61.92,0,0,0,5.5-22c.45-7.78-4.33-43.66-7.5-53.25-2.76-8.33-5.74-26.92-11.5-35.5-13.11-19.54-38.76-17.93-65-40-12-10.09-18.53-20.42-23-27.5C169.87,230.26,159,213,163,195c3.43-15.31,15.62-21.95,12.25-28.25-4-7.43-22.66-1.39-25.75-8.42-2.4-5.46,6.53-14.48,10.94-19,11.3-11.42,19.14-11.42,27.79-22,4.81-5.86,9.37-10.17,8.1-14.41-2.33-7.82-21.7-8.87-25.33-9-6.24-.23-5.68.78-11.25.5-12.6-.63-13.69-5.69-27.25-7.75-6.37-1-12.84-.86-20.25-.75C108.66,86.06,105.66,86.2,103.5,86.33Z" transform="translate(3.7 22.26)"/><path d="M190.67,216.33A256,256,0,0,1,206.33,253c5.6,16.58,5.49,21.91,10,39.67a308.79,308.79,0,0,0,31.67,76s15,25.35,26,25a4.51,4.51,0,0,0,2.75-.92c3-2.52.86-9.6,0-12.5-2.92-9.88-4.46-20.15-7.5-30-3.27-10.59-4.39-18.52-6-29.66-3.88-27.37,1.46-31.58-2.78-50.84-2-9-4.77-22.44-14.75-33.5C228.17,216.75,200.56,216.1,190.67,216.33Z" transform="translate(3.7 22.26)"/><path class="cls-4" d="M182.25,437a25.33,25.33,0,0,0-7.37-.12c-5,.64-10.19,2.85-10,4,.07.48,1.11.71,1.81.87,1.62.36,2.45-.14,4.14-.23,2.07-.11,2,.6,4.17.61a7.68,7.68,0,0,0,4.88-1.32A6.75,6.75,0,0,0,182.25,437Z" transform="translate(3.7 22.26)"/><path class="cls-4" d="M190.88,457.06c.37.66-.37,1.74-.94,2.57a7,7,0,0,1-3.38,2.68c-1.37.49-2.11.21-4.81.11a41.85,41.85,0,0,0-4.87.08,1.57,1.57,0,0,1-1.5-.86,1.53,1.53,0,0,1,0-1.2,15.35,15.35,0,0,1,3.83-2.22,25.18,25.18,0,0,1,5.92-1.16C190.05,456.42,190.66,456.68,190.88,457.06Z" transform="translate(3.7 22.26)"/><circle class="cls-5" cx="153.82" cy="121.56" r="3.81"/><circle cx="153.82" cy="121.56" r="1.48"/><path d="M108.6,83.85a16.75,16.75,0,0,0-2.15-1.12,14.74,14.74,0,0,0-3.45-1,46.8,46.8,0,0,1-8.83,2.08c-6.09.83-7.53-.26-12.34.84-3.46.78-8,1.83-11,5.83a13.67,13.67,0,0,0-2.5,7.33,58.11,58.11,0,0,0,6.17,3.34A50.46,50.46,0,0,0,85,104.83a44.82,44.82,0,0,0,19.33,0c5.84-1.35,6.19-2.79,11.17-4a34.3,34.3,0,0,1,18.5,1,33.69,33.69,0,0,0-7.67-6.16c-6.1-3.57-9.27-1.87-12.5-5.5C112.43,88.59,111.13,85.47,108.6,83.85Z" transform="translate(3.7 22.26)"/><path d="M109,122.33a26,26,0,0,0,8.25.84c6.43-.4,11.62-3.22,15.42-5.34,5.16-2.87,6.17-4.51,10.25-5.33,2.34-.47,2.25,0,7.25-.25,6.46-.36,9.69-.53,12.25-1.83,3-1.51,4.9-3.74,7.25-3,.92.28,1.87,1,2.66.58s.54-1.17,1.2-2.08a4.77,4.77,0,0,1,2.75-1.58c3.38-1,4.76-3.63,8.64-5.59a18.7,18.7,0,0,1,8.33-1.92L186.66,93a18.94,18.94,0,0,1-4.16,5c-2.95,2.53-6,1.44-7.75,4-.46.68-1.11,2-2.25,2.09-.74.08-1.31-.37-1.83,0s-.41,1.23-.84,1.33-.6-.55-1.15-.67c-.8-.16-1.55,1-2.18,1.59-1.32,1.3-3,1.19-5.42,1.5-3.89.48-3.38,1.19-7.91,2-5.56,1-5.81-.18-9.92,1a45.12,45.12,0,0,0-6.58,2.66c-2.4,1.11-2.93,1.5-4.84,2.42a37.22,37.22,0,0,1-9.25,3.5c-1.62.32-4.65.34-10.7.38-1.76,0-3.2,0-4.15,0Z" transform="translate(3.7 22.26)"/></g></svg>