<svg xmlns="http://www.w3.org/2000/svg" viewBox="0 0 499.57 499.57"><defs><style>.cls-1{fill:#79719d;}.cls-2{fill:#fff;}.cls-3{fill:#5f5d5b;}.cls-4{fill:#232428;}.cls-5{fill:#f15a29;}.cls-6{fill:#cde2e8;}.cls-7{fill:#fff200;}.cls-8,.cls-9{fill:none;stroke-miterlimit:10;}.cls-8{stroke:#fff;stroke-width:0.25px;}.cls-9{stroke:#000;}</style></defs><title>emperor</title><g id="Layer_13" data-name="Layer 13"><rect class="cls-1" width="499.57" height="499.57"/></g><g id="Layer_15" data-name="Layer 15"><path d="M287.78,432.08c11-5,28.46,10.29,26.81,15.93-.65,2.24-4.32,3.06-8.71,4a30,30,0,0,1-15.58-1c-5.44-1.58-8.81-2.56-10-5.41C278.51,441.3,282.62,434.4,287.78,432.08Z" transform="translate(-0.43 -1)"/><path class="cls-2" d="M196.05,87.23l6-6.8L238,76.54a71,71,0,0,1,2.33-13.6c2.27-8.3,4.18-9.39,4.86-9.72,4.5-2.14,10.82,3.12,11.27,3.5,2.24,1.93,2.83,3.46,5.88,9.36,5.39,10.45,5.74,9.88,10.05,18.82,1.86,3.84,3.3,7.08,4.28,9.33l-13,2.72A274.31,274.31,0,0,1,311.1,184c23.83,73.67,12.18,150.19,12.38,150.19s-.16-18.62-.14-18.62a164.27,164.27,0,0,1-2.74,48.85c-2.06,9.78-12.28,49.49-14.14,55.8a79.75,79.75,0,0,1-5.19,13.09c-1,1.92-2.26,3.93-2.26,3.93h0c-.73,1.23-1.7,2.85-2.8,4.5-1.44,2.15-3.91,4.71-8.84,9.82a3.14,3.14,0,0,1-1.92,1.11c-1.32.11-2.22-1-3.67-2.2-1.74-1.4-3.55-3.51-5.06-2.72-2.91,1.53-4.4,4-9.17,5a4.42,4.42,0,0,0-1.16.14c-1.74.73-.89,3.86-2.36,5.3-1.18,1.14-3.16.6-5.39.28-8.31-1.21-10.24,2.06-20.6.59a24.43,24.43,0,0,1-3.3-.59c-1.35-.4-5.75-1.87-13.68-11.61-1.19-1.46-1.94-2.42-3.05-4-8.25-11.34-13.15-24.82-18.63-39-6.93-17.93-6-14.13-8.42-21.2-4.16-12-6.43-21.34-10.06-38.19-5.15-23.93-7.84-35.87-9.71-47-5.89-35.09-9.86-58.81-11.66-91.33-2.09-37.62-3-56.84,5.44-77S186.57,95.38,196.05,87.23Z" transform="translate(-0.43 -1)"/><path d="M156.75,41.8c-.53,1.8,7.08,4.34,18.9,12.78,5.94,4.25,11.64,8.38,16.9,15A59.12,59.12,0,0,1,202.46,88c7.4-2.38,44.45-14.06,55-8.16,1,.58,2.33,1.36,2.33,1.36a93.19,93.19,0,0,1,15.55,11.71c.57.54,1.18,1.42,1.36,1.31.4-.25-2.22-4.82-4.28-9.33-2.68-5.9-3.37-9.44-4.85-14.19a91.89,91.89,0,0,0-9.43-21.26c-3.35-5.29-10.38-16.38-23.42-20.91-5.31-1.84-9.87-2-14.38-2.13A63.5,63.5,0,0,0,199,29.32c-4.8,1.59-5.19,2.44-10.89,4.28a79.14,79.14,0,0,1-13.79,3.11c4.59,1.86,8.52,3.77,8.27,4.77C182,43.9,157.68,38.63,156.75,41.8Z" transform="translate(-0.43 -1)"/><path d="M176,35.71c-9.42,0-11.12-.47-16.5,0A79.26,79.26,0,0,0,134.45,42l56.35-.39,1.95-6C188.86,35.62,183.07,35.71,176,35.71Z" transform="translate(-0.43 -1)"/><path class="cls-3" d="M270.29,443.56c-.74,2.29-1.13,3.45-1.64,3.83-.21.15-.72.47-4.11.1-2.54-.27-2.44-.51-3.71-.51a11.67,11.67,0,0,0-5.31,1c-1.59.77-2.77,1.33-3.36,2.69a5.43,5.43,0,0,0,.76,5.26c1.8,2.21,5.26,1.71,10.53.94,3.08-.45,4.75-.72,6.84-1.88,4.22-2.34,4.46-6.58,5.86-6.43,2.67.29,1.32,14.79,5.68,16.12,2.39.72,5.39-2.85,6.59-4.77,3-4.85,3-12.61-1.83-17-4.06-3.71-9.37-3.08-10.3-2.95-3.8.07-4.88.8-5.24,1.27C271,441.24,271,441.24,270.29,443.56Z" transform="translate(-0.43 -1)"/><path class="cls-3" d="M260.44,451.27c-3.35.17-5,.26-6.95,1.07a12.91,12.91,0,0,0-4.26,2.91c-1.11,1.08-2.11,2.06-2,3.13.18,1.42,2.26,2.19,3.06,2.48,5.85,2.15,11.77-1.29,16.4-4,1.82-1.06,3.1-2,3-2.95-.13-1.3-2.66-2-3.72-2.32A16.47,16.47,0,0,0,260.44,451.27Z" transform="translate(-0.43 -1)"/><path d="M148.83,39.52c-6,.57-14.43,1.78-14.38,2.43.06.93,16.88.83,25,2.38,2.34.45,4.7,1,4.7,1,2.34.54,4.32,1.06,6.32,1.6a290.25,290.25,0,0,0,33.81,6.85L190.8,41.56a89.88,89.88,0,0,0-21.23-2.81c-.89,0-1.78,0-2.77,0C162.72,38.77,155.89,38.86,148.83,39.52Z" transform="translate(-0.43 -1)"/><path class="cls-3" d="M274.34,447.46a11.69,11.69,0,0,1-6,7.3c-2.83,1.3-5.21.57-6.08,2.3a3.59,3.59,0,0,0-.08,2.31c.45,2.38,2.18,3.87,3.76,5.21a14.52,14.52,0,0,0,5.57,3.29,13.69,13.69,0,0,0,9.67-1.05,14.19,14.19,0,0,0,7.27-6.89c2.74-6.13-.21-12.85-2.52-14.74a5.8,5.8,0,0,0-1.6-.93c-1.92-.66-2.9.43-4.67.23-2.57-.28-3.47-2.92-4.45-2.45S275.11,444.6,274.34,447.46Z" transform="translate(-0.43 -1)"/><path class="cls-3" d="M268.34,461.9c.3,1.65-2.26,3.71-4.35,4.46-.88.31-2.55.91-3.69,0-1.51-1.22-1.42-4.6,0-6.17C262.53,457.73,267.94,459.74,268.34,461.9Z" transform="translate(-0.43 -1)"/><path class="cls-4" d="M261.43,461.58a2.61,2.61,0,0,0-1.92,0c-.28.13-.5.3-2.14,3.26a6.58,6.58,0,0,0-.76,2c-.12.61-.2,1,0,1.29.4.56,1.62.21,2.33,0a7.43,7.43,0,0,0,2.49-1.29c1.18-.93,2.1-1.67,2.09-2.75A3,3,0,0,0,261.43,461.58Z" transform="translate(-0.43 -1)"/><path class="cls-5" d="M156.75,41.8c0,.2,2.17.51,5.92,1.34,4.26.93,7.36,1.84,9.85,2.57a143.12,143.12,0,0,1,14.27,5c1.91.46,4,.87,6.23,1.19a70.05,70.05,0,0,0,10,.72c-10.53-6.43-18.7-8.43-23.33-9.17-3.26-.52-7.9-.91-11.73-1.24C163.84,41.9,156.79,41.43,156.75,41.8Z" transform="translate(-0.43 -1)"/><circle class="cls-6" cx="215.06" cy="40.95" r="2.33"/><path class="cls-7" d="M188.22,94.55c2.66-.69,6.65-1.69,11.52-2.75,9.08-2,13.66-3,16-2.33,6.25,1.62,5.82,6.27,15.74,10.78,3.14,1.43,5.65,2.09,8.45,1.75.85-.1,6.07-.73,7.77-4.27,2.37-4.91-3.79-11.66-4.66-12.61a15.13,15.13,0,0,0-1.31-1.28l-.11-.1c-.45-.38-2.48-2.17-7.65-6.76l-9.34,1-13.6,1.47-9,1a41.43,41.43,0,0,0-5.15,4,48.61,48.61,0,0,0-4.9,5.22C190.42,91.52,189.15,93.23,188.22,94.55Z" transform="translate(-0.43 -1)"/><path d="M263.68,97a16.75,16.75,0,0,0-4.42-7.65A17.78,17.78,0,0,0,252,85.12c-2.06-.73-3.53-1.24-5.45-.93a9,9,0,0,0-5.36,3.27,5.49,5.49,0,0,0-.84,3.27c.37,3.9,5.9,6.26,7.38,7,5.53,2.72,10.68,8.68,21,20.6,7.77,9,11.27,18.68,18.27,38.09,3.26,9,5.24,15.61,8.16,25.65,4.16,14.3,7.06,24.42,8.94,37.12.36,2.44.95,6.78,1.94,26.62,1.62,32.33,1.32,43.69,3.89,64.52a127.63,127.63,0,0,0,3.23,17.48c.89,3.4,1.71,5.9,2.34,7.81,2.19,6.62,7.15,20.22,8.81,19.79,1.06-.27-.82-5.8.46-15.51.49-3.78.94-4.16,2.54-12.32,0-.24,1.14-5.87,2.05-11.81a214.39,214.39,0,0,0,2.34-21.38c.7-14.44,1.1-22.66.77-33.81a349.27,349.27,0,0,0-8.94-66.85c-4.93-21.59-8.95-39.16-19.82-60.63a201.33,201.33,0,0,0-26-39.26C275.63,94.82,266.3,96.9,263.68,97Z" transform="translate(-0.43 -1)"/><path class="cls-8" d="M313.82,179.54a118.61,118.61,0,0,0,4.86,15.94c3.51,9.15,8.33,61.85,7.38,79.87-.87,16.57-2.46,20.85-2.72,40.23-.06,4.84,0,9.71,0,9.71,0,4,.08,6.92.14,8.91.09,3,.37,10.79.83,21.21" transform="translate(-0.43 -1)"/><path class="cls-7" d="M258.26,58.59a30.38,30.38,0,0,0-11.88,7c-5.63,5.48-6.83,11.38-8.35,11-1.8-.46-1.64-8.28,0-14.77,1.34-5.31,2.9-11.34,7.19-12.45C249.32,48.26,254.9,52,258.26,58.59Z" transform="translate(-0.43 -1)"/><path class="cls-2" d="M160.33,218.39a113.64,113.64,0,0,0-7.23,22.07c-.71,3.3-1.08,5.8-3.36,23.57-1.38,10.72-2.07,16.09-2.14,16.76-2.5,24.4.88,41.71,2.41,48.63a68.51,68.51,0,0,0,5,14.72c2.76,5.83,7.3,15.4,13.21,15.26,1.42,0,3.47-.64,5.85-3.38.31-4.89.65-11.51.86-19.36,0,0,.4-15.56,0-28.86C174.44,290.75,170,258.73,160.33,218.39Z" transform="translate(-0.43 -1)"/><path d="M161.88,225c.69,9.73-.78,21.62-9.94,45.19-.95,2.42-2.41,6.11-4.34,10.59a258.06,258.06,0,0,1,5.5-40.33c.93-4.22,4.92-22.36,7.23-22.07C161.4,218.52,161.71,222.6,161.88,225Z" transform="translate(-0.43 -1)"/><path class="cls-9" d="M-76.33,143" transform="translate(-0.43 -1)"/><path class="cls-3" d="M213.12,439.45c-2.42,3.31-.88,7.14-3,8.44-.85.51-1.25.21-3.62,0-.36,0-4.68-.38-7.24,1.71-2.93,2.39-3.8,8.17-1.88,10,.23.21,1.27,1.1,4.92,0,6.39-1.93,7.33-5.91,12.88-8.73,2.28-1.16,1.66-.29,10.57-3.28,5.27-1.76,6.92-2.53,7.38-4.11.68-2.31-1.61-5-3.19-6.31-4-3.24-9.8-2.06-13-.49A9,9,0,0,0,213.12,439.45Z" transform="translate(-0.43 -1)"/><path class="cls-4" d="M197.75,451.35c.93,0,1.74,1.08,2,2,.6,2-1,4-1.08,4.09-.88,1-1.49.83-2.62,2.15-.75.86-.61,1.1-1.27,1.83-1.1,1.24-2.92,2.19-3.39,1.75s1.08-3.08,2.28-6.08a18.14,18.14,0,0,1,1.52-3.31C196,452.5,196.75,451.33,197.75,451.35Z" transform="translate(-0.43 -1)"/><path class="cls-3" d="M208.2,448.14a11.71,11.71,0,0,0-4.84,4.89c-.74,1.42-2.21,4.21-1.09,6.55,1.25,2.62,4.85,2.77,5.75,2.8,2.19.09,3.8-.71,5.65-1.63a17.61,17.61,0,0,0,6-4.45c1.4-1.63,4.55-5.31,3.69-9.47a5.11,5.11,0,0,0-1.82-3.39c-2.58-1.79-7.27.32-7.74,2.54-.17.81.34,1.07.23,2.16-.18,1.7-1.71,3.89-3.37,3.6A3.4,3.4,0,0,1,208.2,448.14Z" transform="translate(-0.43 -1)"/><path class="cls-4" d="M203.22,457.81c.52-1.06,1.4-2.83,2.85-2.91a2.59,2.59,0,0,1,2.21,1.31,4.37,4.37,0,0,1,0,3.6,5.84,5.84,0,0,1-.6,1.16c-.93,1.49-1.7,1.59-2.63,3-.55.83-.3.84-.79,1.5-1,1.35-2.65,2.2-3.08,1.82-.25-.23.09-.76.52-2.77.18-.86.16-.9.35-2C202.52,459.82,202.64,459,203.22,457.81Z" transform="translate(-0.43 -1)"/><path class="cls-3" d="M219.64,454c-.08,4.52-.13,7.29,1.59,8.61,2.2,1.69,6.51.49,7.32.27l.36-.11c1.54-.47,6.34-2.24,8-7.14,1.05-3.1.32-5.91-.26-8.14a19.38,19.38,0,0,0-4.63-8.22c-2-2.09-3.65-3.84-6-3.75a6.8,6.8,0,0,0-5.38,3.86c-1,2-.25,2.91-.59,9.89C219.91,451.66,219.69,451.1,219.64,454Z" transform="translate(-0.43 -1)"/><path class="cls-4" d="M219.64,456.3c-.39.84-.39,1.49-.32,3.63.19,5.91.35,6.74.86,6.9s1.41-.7,1.63-1c1.12-1.29.59-2.41,1.31-4.66s1.7-2.36,1.73-4c0-1.3-.56-3-1.73-3.39C221.76,453.41,220.26,455,219.64,456.3Z" transform="translate(-0.43 -1)"/><path class="cls-4" d="M252.62,450.11c-.83-.43-2.71,1.62-5.71,4.12-.4.32-.61.5-.94.75-.66.52-.94.69-1.7,1.37-1.36,1.2-2.85,2.52-2.56,3.1s2.14.19,3.14,0a14.75,14.75,0,0,0,4-1.33,7.92,7.92,0,0,0,2.27-1.5,6.59,6.59,0,0,0,1.71-3.38C252.93,452.53,253.33,450.49,252.62,450.11Z" transform="translate(-0.43 -1)"/><path class="cls-4" d="M248.36,455.49a21.53,21.53,0,0,0-2.83,3c-1,1.26-1.47,1.92-1.26,2.36s1.45.42,2.35.33a6.92,6.92,0,0,0,3.15-.94c.56-.34,3-1.81,2.93-4.09,0-1-.52-2.32-1.38-2.57C250.68,453.43,249.9,454.12,248.36,455.49Z" transform="translate(-0.43 -1)"/></g></svg>