<svg xmlns="http://www.w3.org/2000/svg" viewBox="0 0 500 528.06"><defs><style>.cls-1{fill:#57ceea;}.cls-2{fill:#f15a29;}.cls-3{fill:#cde2e8;}.cls-4{fill:#fff;}.cls-5{fill:#fff200;}.cls-6,.cls-7{fill:none;stroke-miterlimit:10;}.cls-6{stroke:#fff;stroke-width:0.25px;}.cls-7{stroke:#000;}.cls-8{fill:#5f5d5b;}.cls-9{fill:#232428;}</style></defs><title>emperor</title><g id="Layer_13" data-name="Layer 13"><rect class="cls-1" width="500" height="528.06"/></g><g id="Layer_15" data-name="Layer 15"><path d="M184.62,93.37c-.45,1.54,6.08,3.72,16.21,11,5.1,3.65,10,7.18,14.5,12.84a50.88,50.88,0,0,1,8.5,15.83c6.35-2,38.12-12.06,47.17-7,.89.5,2,1.17,2,1.17a79.74,79.74,0,0,1,13.33,10c.49.47,1,1.22,1.17,1.12.34-.21-1.91-4.13-3.67-8-2.3-5.06-2.89-8.1-4.16-12.16a78.42,78.42,0,0,0-8.08-18.24c-2.88-4.54-8.91-14.05-20.09-17.93a38.71,38.71,0,0,0-12.33-1.83,54.48,54.48,0,0,0-18.34,2.5c-4.11,1.36-4.45,2.09-9.33,3.66A66.89,66.89,0,0,1,199.67,89c3.93,1.6,7.3,3.23,7.09,4.1C206.24,95.17,185.42,90.65,184.62,93.37Z" transform="translate(0 21.75)"/><path d="M201.15,88.14c-8.08,0-9.53-.4-14.15,0a70.71,70.71,0,0,0-13.62,2.52,67.91,67.91,0,0,0-7.88,2.84l48.33-.33L215.5,88C212.17,88.07,207.2,88.14,201.15,88.14Z" transform="translate(0 21.75)"/><path d="M177.83,91.42c-5.17.48-12.37,1.52-12.33,2.08.06.79,14.48.71,21.42,2,2,.38,4,.84,4,.84,2,.46,3.71.91,5.43,1.37a248,248,0,0,0,29,5.88L213.83,93.17a77,77,0,0,0-18.2-2.42c-.77,0-1.54,0-2.38,0C189.75,90.77,183.89,90.85,177.83,91.42Z" transform="translate(0 21.75)"/><path class="cls-2" d="M184.62,93.37c0,.17,1.87.44,5.09,1.15,3.65.8,6.31,1.58,8.45,2.2A120.85,120.85,0,0,1,210.39,101c1.64.39,3.43.74,5.34,1a60.72,60.72,0,0,0,8.59.61c-9-5.51-16-7.23-20-7.86-2.8-.45-6.77-.78-10.06-1.06C190.71,93.45,184.66,93.05,184.62,93.37Z" transform="translate(0 21.75)"/><circle class="cls-3" cx="235" cy="115.25" r="2"/><path class="cls-4" d="M218.33,132.33c1.73-1.94,3.45-3.89,5.17-5.83l30.83-3.33a62.26,62.26,0,0,1,2-11.67c1.95-7.12,3.59-8.06,4.17-8.33,3.87-1.84,9.28,2.67,9.67,3,1.92,1.65,2.42,3,5,8,4.62,9,4.93,8.48,8.62,16.14,1.59,3.3,2.83,6.07,3.67,8l-11.17,2.34A253.39,253.39,0,0,1,317,215.33c11.19,32.9,7.48,76.69,3,163.34-.11,2.12-.3,5.66-.9,10.44a145.88,145.88,0,0,1-21.67,59.64c-1.33,2.13-3.47,5.05-7.1,6.25-1.62.54-2.28.3-11.48-.63-8.6-.86-9.5-.8-10.57-.6a30.51,30.51,0,0,1-5.64.52,17.85,17.85,0,0,1-3.12-.31,34.26,34.26,0,0,1-12.63-5.66c-17.54-12.59-30.58-54.78-32.93-62.57-4-13.1-6.62-23.44-8.63-32.75-4.42-20.52-6.73-30.77-8.33-40.33-5-30.1-8.45-50.44-10-78.34-1.79-32.26-2.54-48.74,4.67-66A97.1,97.1,0,0,1,218.33,132.33Z" transform="translate(0 21.75)"/><path class="cls-5" d="M211.62,138.61c2.28-.59,5.7-1.45,9.88-2.36,7.78-1.69,11.71-2.53,13.75-2,5.37,1.39,5,5.38,13.5,9.25A13,13,0,0,0,256,145c.73-.09,5.2-.63,6.67-3.67,2-4.2-3.26-10-4-10.81-.5-.54-.93-.93-1.12-1.1l-.1-.08-6.56-5.8-8,.87-11.66,1.26-7.72.83a35.11,35.11,0,0,0-4.41,3.4,41.9,41.9,0,0,0-4.2,4.47C213.5,136,212.41,137.48,211.62,138.61Z" transform="translate(0 21.75)"/><path d="M276.33,140.67a14.37,14.37,0,0,0-3.78-6.56,15.37,15.37,0,0,0-6.22-3.59,9,9,0,0,0-4.68-.8,7.83,7.83,0,0,0-4.6,2.81,4.74,4.74,0,0,0-.72,2.8c.32,3.34,5.06,5.37,6.34,6,4.73,2.34,9.16,7.45,18,17.67,6.66,7.7,9.66,16,15.66,32.67,2.8,7.75,4.5,13.38,7,22,3.57,12.26,6.06,20.94,7.67,31.83.31,2.1.82,5.82,1.67,22.83,1.38,27.73,1.13,37.48,3.33,55.34a104.24,104.24,0,0,0,4.78,21.69,100.77,100.77,0,0,0,7.55,17,66.58,66.58,0,0,1,.34-20c.95-5.61,2.47-7.31,4-14,1.09-4.81,1.54-8.86,2-18.33.6-12.39.94-19.44.66-29a300,300,0,0,0-7.66-57.33c-4.24-18.52-7.68-33.58-17-52A173.11,173.11,0,0,0,288.33,138,57.41,57.41,0,0,1,276.33,140.67Z" transform="translate(0 21.75)"/><path class="cls-6" d="M319.33,211.5a105.1,105.1,0,0,0,4.17,13.67c3,7.84,6.27,13.36,6.5,22.33,0,.88,0,1.53,0,2-.44,21.87.64,28.72-.17,44.17-.74,14.21-2.11,17.88-2.33,34.5-.05,4.15,0,8.33,0,8.33,0,3.08.08,5.69.12,7.64" transform="translate(0 21.75)"/><path class="cls-5" d="M271.69,107.77a25.84,25.84,0,0,0-10.19,6c-4.83,4.69-5.86,9.75-7.17,9.42-1.54-.4-1.4-7.11,0-12.67,1.16-4.56,2.5-9.73,6.17-10.68C264,98.91,268.8,102.1,271.69,107.77Z" transform="translate(0 21.75)"/><path class="cls-4" d="M187.69,244.81a98.09,98.09,0,0,0-6.19,18.94c-.61,2.83-.93,5-2.89,20.21-1.18,9.2-1.77,13.8-1.83,14.37-2.14,20.93.75,35.77,2.06,41.71a59.59,59.59,0,0,0,4.33,12.63c2.37,5,6.26,13.2,11.33,13.08,1.22,0,3-.55,5-2.9.26-4.19.55-9.87.73-16.6,0,0,.35-13.34,0-24.75C199.8,306.88,196,279.42,187.69,244.81Z" transform="translate(0 21.75)"/><path d="M189,250.49c.59,8.35-.67,18.55-8.53,38.76-.81,2.08-2.07,5.24-3.72,9.08a221.74,221.74,0,0,1,4.72-34.58c.8-3.62,4.21-19.18,6.19-18.94C188.62,244.93,188.88,248.43,189,250.49Z" transform="translate(0 21.75)"/><path class="cls-7" d="M-76.33,143" transform="translate(0 21.75)"/><path class="cls-8" d="M237.15,437.4c-1.94,2.84-.71,6.13-2.43,7.24-.68.44-1,.19-2.91,0-.29,0-3.76-.33-5.82,1.47-2.35,2.05-3.05,7-1.51,8.56.18.18,1,.94,4,0,5.13-1.66,5.89-5.07,10.35-7.49,1.83-1,1.33-.25,8.49-2.81,4.24-1.51,5.56-2.17,5.93-3.52.55-2-1.29-4.33-2.57-5.42-3.24-2.78-7.87-1.76-10.45-.41A7.28,7.28,0,0,0,237.15,437.4Z" transform="translate(0 21.75)"/><path class="cls-9" d="M224.8,447.62c.75,0,1.4.92,1.63,1.73a4.44,4.44,0,0,1-.87,3.51c-.71.87-1.2.71-2.11,1.84-.6.75-.49.95-1,1.57-.88,1.06-2.34,1.88-2.72,1.51s.87-2.65,1.83-5.22a16.87,16.87,0,0,1,1.22-2.84C223.42,448.59,224,447.59,224.8,447.62Z" transform="translate(0 21.75)"/><path class="cls-8" d="M233.2,444.86a9.79,9.79,0,0,0-3.89,4.19c-.6,1.22-1.77,3.62-.87,5.62,1,2.24,3.89,2.37,4.62,2.4a8.43,8.43,0,0,0,4.54-1.4,14.26,14.26,0,0,0,4.8-3.81c1.12-1.4,3.65-4.56,3-8.12a4.56,4.56,0,0,0-1.46-2.91c-2.08-1.53-5.84.27-6.22,2.18-.14.69.27.91.18,1.85-.15,1.46-1.37,3.34-2.71,3.09A2.92,2.92,0,0,1,233.2,444.86Z" transform="translate(0 21.75)"/><path class="cls-9" d="M229.2,453.15c.42-.91,1.12-2.43,2.29-2.49a2.07,2.07,0,0,1,1.77,1.12,4,4,0,0,1,0,3.09,4.45,4.45,0,0,1-.48,1c-.75,1.27-1.37,1.36-2.11,2.55-.44.71-.24.72-.64,1.28-.79,1.16-2.12,1.89-2.47,1.56-.2-.19.07-.65.41-2.37.15-.74.14-.77.29-1.72A14.23,14.23,0,0,1,229.2,453.15Z" transform="translate(0 21.75)"/><path class="cls-8" d="M242.4,449.85c-.07,3.89-.11,6.26,1.28,7.4,1.76,1.44,5.22.42,5.87.22l.29-.09a9.84,9.84,0,0,0,6.43-6.12,12.43,12.43,0,0,0-.21-7,16.93,16.93,0,0,0-3.72-7c-1.6-1.79-2.93-3.29-4.83-3.21a5.5,5.5,0,0,0-4.33,3.31c-.8,1.71-.2,2.5-.47,8.48C242.61,447.88,242.44,447.4,242.4,449.85Z" transform="translate(0 21.75)"/><path class="cls-9" d="M242.4,451.86c-.32.72-.32,1.27-.27,3.11.16,5.07.29,5.78.7,5.92s1.13-.6,1.31-.83c.9-1.1.47-2.06,1.05-4s1.37-2,1.39-3.41c0-1.11-.45-2.58-1.39-2.91C244.1,449.38,242.89,450.73,242.4,451.86Z" transform="translate(0 21.75)"/><path class="cls-8" d="M283.1,438.93c-.6,2-.91,3-1.32,3.28-.17.14-.58.4-3.31.09-2-.23-2-.44-3-.43a8.69,8.69,0,0,0-4.26.87c-1.28.66-2.23,1.14-2.71,2.3a4.94,4.94,0,0,0,.62,4.52c1.44,1.89,4.22,1.46,8.46.8,2.47-.39,3.82-.61,5.5-1.61,3.39-2,3.58-5.64,4.71-5.51,2.14.25,1.06,12.68,4.56,13.82,1.92.62,4.33-2.44,5.3-4.09,2.43-4.16,2.41-10.81-1.47-14.6a10,10,0,0,0-8.29-2.54c-3.05.06-3.91.69-4.2,1.09C283.7,436.94,283.7,436.94,283.1,438.93Z" transform="translate(0 21.75)"/><path class="cls-9" d="M268.52,445a5.57,5.57,0,0,0-2.61,1.41c-.89.86-.8,1.35-2.45,4.11-.7,1.18-1,1.63-.92,1.83s1.35-.38,2.93-1.23c3.14-1.68,4.41-1.31,4.74-2.32.14-.42.29-1.53-1.69-3.8" transform="translate(0 21.75)"/><path class="cls-8" d="M275.18,445.55c-2.69.14-4,.21-5.59.91a10.32,10.32,0,0,0-3.42,2.49c-.89.94-1.69,1.77-1.59,2.69.15,1.22,1.82,1.88,2.46,2.13,4.7,1.84,9.46-1.11,13.18-3.41,1.46-.91,2.49-1.71,2.41-2.53-.1-1.11-2.14-1.73-3-2A12.06,12.06,0,0,0,275.18,445.55Z" transform="translate(0 21.75)"/><path class="cls-9" d="M265.47,451.16a17.68,17.68,0,0,0-2.27,2.61c-.78,1.08-1.18,1.64-1,2s1.16.36,1.88.28a5.31,5.31,0,0,0,2.54-.8c.45-.29,2.38-1.55,2.35-3.51,0-.87-.42-2-1.11-2.2C267.34,449.4,266.71,450,265.47,451.16Z" transform="translate(0 21.75)"/><path class="cls-8" d="M286.35,442.27a10,10,0,0,1-4.85,6.27c-2.27,1.11-4.19.49-4.88,2a3.27,3.27,0,0,0-.07,2c.36,2,1.75,3.32,3,4.46a11.39,11.39,0,0,0,4.48,2.83,10.33,10.33,0,0,0,7.76-.9,11.73,11.73,0,0,0,5.85-5.91c2.2-5.25-.17-11-2-12.64a4.49,4.49,0,0,0-1.29-.8c-1.54-.56-2.32.37-3.75.2-2.06-.25-2.79-2.51-3.58-2.1S287,439.82,286.35,442.27Z" transform="translate(0 21.75)"/><path class="cls-8" d="M281.53,454.66c.24,1.41-1.82,3.18-3.49,3.82-.72.27-2.06.78-3,0-1.22-1.05-1.15-3.94,0-5.29C276.86,451.09,281.21,452.81,281.53,454.66Z" transform="translate(0 21.75)"/><path class="cls-9" d="M276,454.39a2,2,0,0,0-1.55,0c-.22.1-.4.25-1.72,2.79a6.1,6.1,0,0,0-.61,1.7c-.1.52-.16.86,0,1.1.33.49,1.3.18,1.87,0a5.92,5.92,0,0,0,2-1.1c.94-.8,1.68-1.43,1.68-2.36A2.55,2.55,0,0,0,276,454.39Z" transform="translate(0 21.75)"/></g></svg>