<svg xmlns="http://www.w3.org/2000/svg" viewBox="0 0 500 528.06"><defs><style>.cls-1{fill:#a7a2bf;}.cls-2{fill:#fff;}.cls-3{fill:#5f5d5b;}.cls-4{fill:#232428;}.cls-5{fill:#f15a29;}.cls-6{fill:#cde2e8;}.cls-7{fill:#fff200;}.cls-8,.cls-9{fill:none;stroke-miterlimit:10;}.cls-8{stroke:#fff;stroke-width:0.25px;}.cls-9{stroke:#000;}</style></defs><title>emperor</title><g id="Layer_13" data-name="Layer 13"><rect class="cls-1" width="500" height="528.06"/></g><g id="Layer_15" data-name="Layer 15"><path d="M310.28,444.12c11.28-5.08,29.09,10.51,27.4,16.28-.66,2.29-4.42,3.12-8.91,4.12a30.66,30.66,0,0,1-15.91-1c-5.56-1.62-9-2.62-10.2-5.53C300.82,453.54,305,446.49,310.28,444.12Z" transform="translate(0 21.75)"/><path class="cls-2" d="M216.56,91.78q3.09-3.47,6.16-7l36.73-4A73.9,73.9,0,0,1,261.83,67c2.32-8.48,4.28-9.59,5-9.92,4.6-2.2,11.06,3.18,11.51,3.57,2.3,2,2.89,3.53,6,9.56,5.51,10.67,5.87,10.1,10.28,19.23,1.89,3.93,3.37,7.23,4.36,9.53l-13.3,2.78a326.32,326.32,0,0,1,48.45,89c30.41,85.57,18.21,151.11,12.79,164.6-.27.67-1.59,3.88-3.08,8.34-4,12.15-4.52,19.18-6.93,34.75,0,0-5.14,33.22-12.82,47-1.1,2-2.32,4-2.32,4-.74,1.25-1.74,2.91-2.86,4.59-1.47,2.2-4,4.82-9,10a3.14,3.14,0,0,1-2,1.13c-1.35.12-2.27-1.07-3.75-2.25-1.78-1.42-3.63-3.59-5.18-2.77-3,1.56-4.49,4.12-9.37,5.13a4.11,4.11,0,0,0-1.17.15c-1.79.75-.92,3.94-2.42,5.41-1.21,1.17-3.23.62-5.51.29-8.49-1.23-10.46,2.1-21.05.6a24.76,24.76,0,0,1-3.36-.6c-1.38-.41-5.88-1.92-14-11.86-1.22-1.5-2-2.48-3.13-4-8.42-11.58-13.42-25.36-19-39.87-7.07-18.32-6.09-14.43-8.6-21.66-4.25-12.23-6.56-21.8-10.27-39-5.27-24.45-8-36.65-9.93-48.05-6-35.86-10.07-60.08-11.91-93.32-2.14-38.44-3-58.07,5.55-78.63S206.88,100.11,216.56,91.78Z" transform="translate(0 21.75)"/><path d="M176.41,45.36c-.54,1.84,7.23,4.44,19.31,13.07,6.07,4.34,11.9,8.55,17.27,15.28a60.81,60.81,0,0,1,10.13,18.87c7.55-2.44,45.4-14.37,56.19-8.34,1.05.59,2.38,1.39,2.38,1.39a95.12,95.12,0,0,1,15.88,12c.59.55,1.21,1.44,1.39,1.33.41-.25-2.27-4.93-4.36-9.53-2.75-6-3.45-9.65-5-14.49A93.38,93.38,0,0,0,280,53.18c-3.43-5.41-10.61-16.74-23.93-21.36-5.43-1.88-10.09-2-14.7-2.18a65,65,0,0,0-21.84,3c-4.9,1.63-5.3,2.49-11.12,4.37a79.06,79.06,0,0,1-14.09,3.18C199,42.07,203,44,202.78,45,202.16,47.51,177.35,42.13,176.41,45.36Z" transform="translate(0 21.75)"/><path d="M196.1,39.14c-9.63,0-11.36-.48-16.86,0a83.54,83.54,0,0,0-16.23,3,81.06,81.06,0,0,0-9.39,3.38l57.58-.4,2-6.15C209.22,39.05,203.3,39.14,196.1,39.14Z" transform="translate(0 21.75)"/><path class="cls-3" d="M292.42,455.85c-.76,2.34-1.15,3.52-1.68,3.91-.22.16-.74.48-4.2.11-2.59-.28-2.49-.52-3.79-.52a11.77,11.77,0,0,0-5.42,1c-1.63.78-2.83,1.36-3.44,2.75a5.55,5.55,0,0,0,.78,5.37c1.84,2.26,5.37,1.75,10.76,1,3.14-.46,4.85-.73,7-1.91,4.31-2.4,4.55-6.73,6-6.57,2.72.29,1.35,15.1,5.8,16.46,2.44.74,5.5-2.91,6.73-4.88,3.09-4.95,3.08-12.88-1.87-17.39-4.15-3.8-9.58-3.15-10.53-3-3.88.08-5,.83-5.35,1.3C293.18,453.48,293.18,453.48,292.42,455.85Z" transform="translate(0 21.75)"/><path class="cls-4" d="M273.89,460.75a7.19,7.19,0,0,0-3.33,1.68c-1.12,1-1,1.61-3.1,4.89-.9,1.41-1.34,1.95-1.17,2.19S268,469.05,270,468c4-2,5.6-1.56,6-2.76.17-.5.37-1.82-2.15-4.53" transform="translate(0 21.75)"/><path class="cls-3" d="M282.35,463.73c-3.42.18-5.13.26-7.1,1.09a13.19,13.19,0,0,0-4.36,3c-1.13,1.1-2.15,2.1-2,3.19.18,1.46,2.31,2.24,3.12,2.54,6,2.19,12-1.32,16.76-4.06,1.86-1.08,3.16-2,3.06-3-.12-1.32-2.72-2.05-3.79-2.36A16.88,16.88,0,0,0,282.35,463.73Z" transform="translate(0 21.75)"/><path d="M168.31,43c-6.16.58-14.74,1.81-14.69,2.48.07.94,17.26.85,25.53,2.43,2.38.46,4.8,1,4.8,1,2.39.55,4.41,1.09,6.45,1.63a296.49,296.49,0,0,0,34.55,7L211.2,45.12a92.61,92.61,0,0,0-21.69-2.88c-.91,0-1.83,0-2.83,0C182.51,42.27,175.53,42.36,168.31,43Z" transform="translate(0 21.75)"/><path class="cls-3" d="M296.56,459.84a12,12,0,0,1-6.17,7.46c-2.89,1.32-5.32.58-6.2,2.35a3.54,3.54,0,0,0-.09,2.36c.46,2.43,2.22,3.95,3.85,5.31a14.86,14.86,0,0,0,5.69,3.38,14,14,0,0,0,9.87-1.08,14.48,14.48,0,0,0,7.43-7.05c2.8-6.25-.21-13.12-2.58-15.05a5.66,5.66,0,0,0-1.63-.95c-2-.67-3,.44-4.77.24-2.62-.3-3.55-3-4.55-2.51S297.34,456.92,296.56,459.84Z" transform="translate(0 21.75)"/><path class="cls-3" d="M290.42,474.59c.31,1.68-2.31,3.79-4.44,4.55-.9.33-2.61.94-3.77,0-1.55-1.24-1.46-4.69,0-6.3C284.48,470.33,290,472.38,290.42,474.59Z" transform="translate(0 21.75)"/><path class="cls-4" d="M283.37,474.27a2.64,2.64,0,0,0-2,0c-.29.12-.51.3-2.19,3.32a7.15,7.15,0,0,0-.77,2c-.13.62-.21,1,0,1.31.41.58,1.65.22,2.38,0a7.52,7.52,0,0,0,2.55-1.32c1.2-.94,2.14-1.69,2.13-2.8A3.06,3.06,0,0,0,283.37,474.27Z" transform="translate(0 21.75)"/><path class="cls-5" d="M176.41,45.36c0,.21,2.21.53,6.05,1.37,4.35,1,7.52,1.88,10.07,2.63A143.64,143.64,0,0,1,207.1,54.5c2,.47,4.08.89,6.37,1.22a71.61,71.61,0,0,0,10.23.73c-10.76-6.57-19.11-8.62-23.84-9.37-3.34-.53-8.07-.93-12-1.26C183.65,45.46,176.45,45,176.41,45.36Z" transform="translate(0 21.75)"/><circle class="cls-6" cx="236.42" cy="67.27" r="2.38"/><path class="cls-7" d="M208.56,99.27c2.72-.72,6.79-1.74,11.78-2.82,9.27-2,13.95-3,16.38-2.38,6.39,1.66,5.95,6.41,16.08,11,3.21,1.46,5.78,2.13,8.64,1.78.87-.1,6.2-.75,7.94-4.36,2.41-5-3.88-11.92-4.77-12.89a16.27,16.27,0,0,0-1.33-1.31l-.12-.1c-.45-.39-2.53-2.22-7.81-6.9l-9.55,1-13.89,1.5-9.19,1a44.46,44.46,0,0,0-5.26,4,50.55,50.55,0,0,0-5,5.33C210.81,96.17,209.51,97.91,208.56,99.27Z" transform="translate(0 21.75)"/><path d="M285.66,101.71a17.13,17.13,0,0,0-4.51-7.81,18.26,18.26,0,0,0-7.41-4.28c-2.11-.74-3.61-1.26-5.57-1A9.3,9.3,0,0,0,262.69,92a5.61,5.61,0,0,0-.86,3.34c.38,4,6,6.4,7.55,7.15,5.64,2.78,10.91,8.87,21.44,21,7.94,9.18,11.52,19.09,18.67,38.92,3.33,9.24,5.36,15.95,8.34,26.21,4.24,14.61,7.21,24.95,9.13,37.92.37,2.51,1,6.93,2,27.21,1.65,33,1.34,44.64,4,65.92a131.42,131.42,0,0,0,3.29,17.85c.92,3.49,1.76,6,2.4,8,2.23,6.76,7.3,20.65,9,20.22,1.08-.27-.83-5.93.47-15.85.5-3.87,1-4.25,2.59-12.59.05-.24,1.17-6,2.1-12.06,1.47-9.54,2.15-17,2.39-21.85.71-14.75,1.12-23.15.79-34.54a357.71,357.71,0,0,0-9.13-68.31c-5.05-22.05-9.15-40-20.26-62A206.39,206.39,0,0,0,300,98.53C297.87,99.54,288.34,101.66,285.66,101.71Z" transform="translate(0 21.75)"/><path class="cls-8" d="M336.89,186.1a123.59,123.59,0,0,0,5,16.28c3.59,9.35,8.51,63.2,7.55,81.61-.89,16.93-2.52,21.3-2.78,41.1-.07,5,0,9.92,0,9.92,0,4.09.08,7.08.14,9.11.1,3.09.38,11,.85,21.67" transform="translate(0 21.75)"/><path class="cls-7" d="M280.12,62.52A31,31,0,0,0,268,69.64c-5.75,5.6-7,11.62-8.54,11.22-1.83-.47-1.67-8.46,0-15.09,1.37-5.43,3-11.59,7.35-12.72C271,52,276.69,55.77,280.12,62.52Z" transform="translate(0 21.75)"/><path class="cls-2" d="M180.06,225.79a116.44,116.44,0,0,0-7.38,22.56c-.72,3.36-1.11,5.91-3.44,24.07-1.4,11-2.1,16.44-2.17,17.13-2.56,24.92.89,42.61,2.45,49.68a70,70,0,0,0,5.15,15c2.82,6,7.46,15.74,13.5,15.59,1.45,0,3.55-.65,6-3.45.31-5,.66-11.76.87-19.78,0,0,.42-15.89,0-29.49C194.48,299.72,189.94,267,180.06,225.79Z" transform="translate(0 21.75)"/><path d="M181.65,232.55c.7,9.94-.8,22.09-10.16,46.17-1,2.48-2.46,6.25-4.42,10.83a261.71,261.71,0,0,1,5.61-41.2c.95-4.32,5-22.86,7.38-22.56C181.16,225.92,181.48,230.09,181.65,232.55Z" transform="translate(0 21.75)"/><path class="cls-9" d="M-76.33,143" transform="translate(0 21.75)"/><path class="cls-3" d="M234,451.65c-2.47,3.38-.9,7.3-3.09,8.62-.87.53-1.28.22-3.7,0-.37,0-4.78-.39-7.4,1.75-3,2.45-3.88,8.35-1.92,10.2.23.22,1.3,1.13,5,0,6.52-2,7.49-6,13.16-8.92,2.33-1.18,1.7-.29,10.8-3.35,5.38-1.8,7.07-2.59,7.54-4.2.69-2.36-1.64-5.15-3.26-6.45-4.13-3.31-10-2.1-13.3-.49A9.2,9.2,0,0,0,234,451.65Z" transform="translate(0 21.75)"/><path class="cls-4" d="M218.3,463.82c.95,0,1.78,1.09,2.07,2.07.61,2.08-1,4.06-1.11,4.18-.9,1-1.52.84-2.68,2.19-.76.88-.62,1.12-1.29,1.87-1.13,1.27-3,2.24-3.47,1.79s1.11-3.15,2.33-6.21a19,19,0,0,1,1.56-3.39C216.54,465,217.28,463.79,218.3,463.82Z" transform="translate(0 21.75)"/><path class="cls-3" d="M229,460.54a12,12,0,0,0-4.94,5c-.76,1.44-2.25,4.3-1.11,6.69,1.28,2.67,5,2.83,5.88,2.86,2.23.1,3.87-.72,5.77-1.67a18,18,0,0,0,6.1-4.54c1.43-1.67,4.64-5.43,3.77-9.67a5.3,5.3,0,0,0-1.86-3.47c-2.64-1.82-7.43.33-7.91,2.6-.18.83.35,1.09.23,2.21-.19,1.73-1.75,4-3.44,3.67A3.48,3.48,0,0,1,229,460.54Z" transform="translate(0 21.75)"/><path class="cls-4" d="M270,468a22,22,0,0,0-2.89,3.11c-1,1.28-1.5,2-1.29,2.41s1.48.43,2.4.33a7.07,7.07,0,0,0,3.22-.95c.57-.35,3-1.85,3-4.18,0-1.05-.53-2.38-1.4-2.63C272.38,465.94,271.58,466.64,270,468Z" transform="translate(0 21.75)"/><path class="cls-4" d="M223.89,470.41c.53-1.08,1.43-2.89,2.91-3a2.62,2.62,0,0,1,2.25,1.34,4.4,4.4,0,0,1,0,3.68,5.57,5.57,0,0,1-.6,1.18c-1,1.52-1.75,1.63-2.69,3.05-.56.85-.31.85-.81,1.53-1,1.38-2.71,2.25-3.14,1.86-.26-.24.08-.78.52-2.83.19-.88.17-.92.37-2.05C223.18,472.47,223.3,471.61,223.89,470.41Z" transform="translate(0 21.75)"/><path class="cls-3" d="M240.67,466.48c-.09,4.63-.14,7.45,1.62,8.81,2.24,1.72,6.65.5,7.47.27l.37-.11c1.58-.48,6.48-2.29,8.18-7.29,1.07-3.17.33-6-.26-8.32a19.92,19.92,0,0,0-4.74-8.41c-2-2.13-3.73-3.91-6.14-3.82a6.94,6.94,0,0,0-5.5,3.94c-1,2-.26,3-.6,10.11C240.94,464.13,240.72,463.56,240.67,466.48Z" transform="translate(0 21.75)"/><path class="cls-4" d="M240.67,468.87c-.4.86-.41,1.52-.34,3.71.21,6,.37,6.88.89,7.05s1.44-.72,1.67-1c1.14-1.32.59-2.47,1.33-4.76s1.74-2.42,1.77-4.06c0-1.33-.57-3.08-1.77-3.47C242.83,465.92,241.3,467.52,240.67,468.87Z" transform="translate(0 21.75)"/></g></svg>