<svg xmlns="http://www.w3.org/2000/svg" xmlns:xlink="http://www.w3.org/1999/xlink" viewBox="0 0 499.57 499.57"><defs><style>.cls-1{fill:#825682;}.cls-2{fill:#232428;}.cls-3{fill:#f15a29;}.cls-4{fill:#fff;}.cls-5{fill:#25252d;}.cls-6{fill:url(#linear-gradient);}.cls-7{fill:#081329;}.cls-8{fill:#d2f4ff;}.cls-9{fill:#58595b;}</style><linearGradient id="linear-gradient" x1="114.51" y1="230.76" x2="403.09" y2="230.76" gradientUnits="userSpaceOnUse"><stop offset="0" stop-color="#254864"/><stop offset="0.08" stop-color="#253d52"/><stop offset="0.18" stop-color="#253241"/><stop offset="0.31" stop-color="#252b36"/><stop offset="0.49" stop-color="#25262f"/><stop offset="1" stop-color="#25252d"/></linearGradient></defs><title>little</title><g id="Layer_13" data-name="Layer 13"><rect class="cls-1" width="499.57" height="499.57"/></g><g id="Layer_22" data-name="Layer 22"><path class="cls-2" d="M220.39,425.43c-.21-.57-3.09.64-10.61,1.44-3.4.37-4.79.36-6.7,1.34a11.41,11.41,0,0,0-4.82,5.08,44.74,44.74,0,0,0,11.33-2.14C215.25,429.28,220.68,426.23,220.39,425.43Z" transform="translate(-0.43)"/><path class="cls-2" d="M226.58,425.2l-16.21,8.69a11.7,11.7,0,0,0,3.58,2c4.72,1.62,11.75.46,13.5-4C228.49,429.35,227.29,426.55,226.58,425.2Z" transform="translate(-0.43)"/><path class="cls-2" d="M221.35,425.54l-16.69,7.11a3.61,3.61,0,0,0,1.08,2.81c1.27,1,3.29.22,4.62-.31s15.56-6.22,14.65-8.72C224.83,425.94,224,425.47,221.35,425.54Z" transform="translate(-0.43)"/><path class="cls-3" d="M256.15,386.85l1.21,29.08c-14.88,6.06-23,7.06-27.74,6.7a17.5,17.5,0,0,0-8.83,1.34,17,17,0,0,0-6.56,5.54l12-2.79q-.93,4.25-1.84,8.49c1.49-.17,3.78-.47,6.55-1a100.72,100.72,0,0,0,13.42-3.42c14.19-4.48,26.35,5.61,34.69-.56,3.88-2.88,4.81-10.47,6.52-25.52a243.11,243.11,0,0,0,1.53-25.06Z" transform="translate(-0.43)"/><path class="cls-4" d="M301.75,400.6a139.14,139.14,0,0,0,70.9-6.3c3.93,5.78,5.35,7.13,5.76,6.91s-.87-2.12,0-4.11c.48-1.08,1.73-2.34,4.53-4.5a1.79,1.79,0,0,0,.6-.6c1.14-2.11-3.71-6.73-4.64-7.61a31.78,31.78,0,0,0-15-7.56c-2.41-.49-49.22-10-60.07,11.7A22.16,22.16,0,0,0,301.75,400.6Z" transform="translate(-0.43)"/><path class="cls-4" d="M377.58,386a84.13,84.13,0,0,0,16.68,28.66q-4.93-13.42-10-26.89c-.5-1.32-1-2.65-1.51-4Z" transform="translate(-0.43)"/><path class="cls-5" d="M311,377a4.92,4.92,0,0,1,0,2.22c-2,9.27-1.52,13.46-5.6,21.94a62.28,62.28,0,0,1-3.48,6.26,18.18,18.18,0,0,1-2.27-3.33,18.43,18.43,0,0,1-1.54-3.84,8.5,8.5,0,0,0-4.25,2.18,11.19,11.19,0,0,0-1.64,2.25,24.18,24.18,0,0,0-2.23,4.66,7.71,7.71,0,0,1,1.66-7.09,3.85,3.85,0,0,0-1.84.64c-2,1.42-1.8,4.65-2.11,4.65s-.5-1.36-.88-7.81A56.06,56.06,0,0,0,299,383.62c2.71-5.45,5.09-12.68,7.3-12.34a22.08,22.08,0,0,1,2.92,3.06A6.3,6.3,0,0,1,311,377Z" transform="translate(-0.43)"/><path class="cls-4" d="M381.73,383.37q2,6.81,4,13.64l8.61,10.5q-3-6.18-2.45-6.52.84-.51,9.73,12.14-3.21-7.72-2.49-8.11.87-.45,7.37,9.68-3.92-10.76-3.41-11t6.36,12q-6.16-14.15-5.34-14.56c.48-.24,2.82,3.13,7,10.14a144.9,144.9,0,0,0-8.61-18c-2.82-5-4.92-6.43-6.68-7.55C390.48,382.37,384.52,382.91,381.73,383.37Z" transform="translate(-0.43)"/><path class="cls-4" d="M102.71,92.91a28.07,28.07,0,0,1,10.81,8.16c5.42,6.86,3.92,10.46,9.3,19.9,2,3.42,3.73,4.23,7,9.3a82.37,82.37,0,0,1,4.3,7.5,42.35,42.35,0,0,0-5.9,10.32c-2.82,7.07-2.87,13.29-2.95,18.42a76.76,76.76,0,0,0,.57,10.2,98.35,98.35,0,0,0,4.35,18.8c2.63,8.54,8.3,26.92,15.07,40,.5,1,1.87,3.56,3.57,7.24,2.94,6.37,4.65,11.19,5,12.26,4.79,13,22.6,35.06,40,62.41,5.31,8.37,7.9,12.6,9.94,16.07,5,8.43,7.09,12.8,10.39,17.64,0,0,2.78,3.95,6.45,8.31,11.5,13.63,30.52,27.82,34.49,30.75l1.56,4.53c0,1.51-.07,3-.11,4.53l5.51-2.86a4.26,4.26,0,0,1,1.69,2.94c0,1-.48,1.72-.26,1.87s1.21-.84,2.6-2.06a35.52,35.52,0,0,1,2.8-2.24,9.88,9.88,0,0,1,3,6.33c.05,1.49-.37,2.73,0,2.9s1.24-.63,3.64-4.46l2.44,2.3,3.36-3.66c1.09,4.76,2.11,5.83,2.87,5.86,1,0,1.27-1.71,3.6-4.35,2.08-2.35,3.07-2.33,5.22-4.67a21,21,0,0,0,3.25-4.66h0c0-.09,7.85-16.22,10.32-24.32,5.13-16.83-2.31-33.34-7.13-44.11-51.56-115.18-60.71-147.32-100.73-185.42-12.48-11.86-27.48-20.94-57.5-39.08C129.26,92.25,113,83,105.57,88.75A9.14,9.14,0,0,0,102.71,92.91Z" transform="translate(-0.43)"/><path class="cls-6" d="M127.29,79.17A70.08,70.08,0,0,1,152.84,63c5.86-2.11,23.28-8.38,41.77-1.48,24.43,9.13,34.28,35.11,35.87,39.31,4.4,11.61,7.52,19.54,9.34,29,.7,3.65,1,6.28,2.78,9.91a27.8,27.8,0,0,0,4.76,6.78c6.65,7.13,12.52,15,19.4,21.88,9.58,9.61,20.11,22.46,41.14,48.18,2.11,2.58,3.19,3.9,4.15,5.14,10.33,13.27,14.36,23.37,21.13,34.39,13.34,21.7,20,32.54,22.12,35.88,23.58,37.16,26.94,37.33,33.9,52.08,7.58,16.06,16.31,33.25,13.27,52.09-.27,1.67-.57,3-.74,3.69l-7.86-8.6,4.67,10.32a43.31,43.31,0,0,1-13.12-16.68,30.93,30.93,0,0,0,1.57,7.83c1.24,3.64,3.79,7.15,6.07,10.51h0a91.79,91.79,0,0,1-11.47-14c-1.62-2.43-2.76-4.42-5.35-6.24-3.23-2.26-6.13-2.42-11.36-3.34a131.05,131.05,0,0,1-13.76-3.19,19.87,19.87,0,0,0,5.65,7.61c3.93,3.18,7.81,3.54,7.86,5.16.07,2-5.92,3.76-7.06,4.08-12.43,3.46-35.76,1.82-52.4,0l-3.46-3.46a36.27,36.27,0,0,0,2.84-16c-.87-14.39-11-23.8-17.8-31.29-9.59-10.51-21.69-33.84-46.12-80.36-1.36-2.6-13.41-25.57-17.46-24.06-2,.76-1.32,7.5-3.7,8-1.69.36-3.66-2.64-4.38-3.76-11.57-18-13.62-31.22-13.62-31.22-2.15-13.89,1.13-14.89-2.19-20.52-4.45-7.55-11.08-7-17.2-15.66-3.4-4.8-4.38-9.24-5.68-15.49-1.66-7.9-3.39-21.55,0-39.54a59.75,59.75,0,0,1-20.61-1c-12.28-2.78-20.4-8.77-25.06-12.29A76.19,76.19,0,0,1,114.51,90Z" transform="translate(-0.43)"/><path class="cls-7" d="M171.7,89.88a5.92,5.92,0,0,1-.84,1.46,1.17,1.17,0,0,1-.21.24,6.87,6.87,0,0,1-2.94,1.91,11.6,11.6,0,0,1-7.64.15A7.37,7.37,0,0,1,157,92a5.72,5.72,0,0,1-.54-.63,4.88,4.88,0,0,1-.59-1A11.31,11.31,0,0,1,160,86.86a9,9,0,0,1,3.77-1,9.35,9.35,0,0,1,5.86,2,8.64,8.64,0,0,1,1,.83A10,10,0,0,1,171.7,89.88Z" transform="translate(-0.43)"/><path class="cls-8" d="M170.79,90.23a6,6,0,0,1-.14,1.35,6.87,6.87,0,0,1-2.94,1.91,11.6,11.6,0,0,1-7.64.15A7.37,7.37,0,0,1,157,92a6.64,6.64,0,0,1-.22-1.74,6,6,0,0,1,.1-1.12,10.57,10.57,0,0,1,3.1-2.25,9,9,0,0,1,3.77-1,9.35,9.35,0,0,1,5.86,2,8.64,8.64,0,0,1,1,.83A6.15,6.15,0,0,1,170.79,90.23Z" transform="translate(-0.43)"/><circle cx="163.35" cy="90.04" r="3.66"/><path class="cls-9" d="M127.33,79c-5.86-.38-10.58-.87-13.72-1.22-6.33-.72-10.48-1.39-16.86-1.29-6.68.1-9.51.92-11.64,2.92A11.19,11.19,0,0,0,82,84.94,67.39,67.39,0,0,0,88.67,89c4.75,2.53,15,7.86,28.63,7.73a52.57,52.57,0,0,0,16.83-2.94,38.38,38.38,0,0,1-6.62-5.45,39,39,0,0,1-3.89-4.73Z" transform="translate(-0.43)"/><path class="cls-4" d="M278.19,233.83a20,20,0,0,1,4,8.66,20.18,20.18,0,0,1-.35,8.48c-1.62,7.06-1.78,15.71-2.1,33,0,.32.29,7.28.87,21.19.62,14.48.95,21.85,2.28,28.19a89.22,89.22,0,0,0,5.39,17,88.28,88.28,0,0,1-10.46-14.44c-16.46-28.36-16.41-64.62-4.73-92A95.29,95.29,0,0,1,278.19,233.83Z" transform="translate(-0.43)"/><path class="cls-5" d="M209.81,204.65c-.59,1,1.06,2.92,3.95,6.64,5.12,6.58,8.84,7.88,11.89,12,3.53,4.82,3.66,10.09,3.87,14.93,0,0,.31,7.12,3.87,43.3,1.08,11,2.88,29.33,14.56,46.62,7,10.42,22.39,27.47,34.82,24a13.69,13.69,0,0,0,5.54-3.2A79.41,79.41,0,0,1,282.22,337c-4.37-10.72-5.15-19.89-6.52-37.78-1-13.47-.79-20-.48-23.95.4-5.06,1.21-10.92,1.25-11.2,1-7,1.62-8.86,2.19-13.1,1.06-7.85,1.81-13.43.24-17.72-2.75-7.52-11.45-8.11-32.47-15.42C224.31,210.17,211.31,202.25,209.81,204.65Z" transform="translate(-0.43)"/></g></svg>