<svg xmlns="http://www.w3.org/2000/svg" xmlns:xlink="http://www.w3.org/1999/xlink" viewBox="0 0 512.93 528.06"><defs><style>.cls-1{fill:#825682;}.cls-2{fill:#232428;}.cls-3{fill:#f15a29;}.cls-4{fill:#fff;}.cls-5{fill:#25252d;}.cls-6{fill:url(#linear-gradient);}.cls-7{fill:#d2f4ff;}.cls-8{fill:none;stroke:#fff;stroke-miterlimit:10;stroke-width:0.15px;}.cls-9{fill:#58595b;}</style><linearGradient id="linear-gradient" x1="103.75" y1="275.73" x2="385.14" y2="275.73" gradientUnits="userSpaceOnUse"><stop offset="0" stop-color="#254864"/><stop offset="0.08" stop-color="#253d52"/><stop offset="0.18" stop-color="#253241"/><stop offset="0.31" stop-color="#252b36"/><stop offset="0.49" stop-color="#25262f"/><stop offset="1" stop-color="#25252d"/></linearGradient></defs><title>little</title><g id="Layer_13" data-name="Layer 13"><rect class="cls-1" width="512.93" height="528.06"/></g><g id="Layer_22" data-name="Layer 22"><path class="cls-2" d="M207,465.67c-.21-.55-3,.63-10.35,1.41-3.31.36-4.67.35-6.54,1.3a11.11,11.11,0,0,0-4.69,5,43.87,43.87,0,0,0,11-2.09C201.94,469.43,207.23,466.45,207,465.67Z" transform="translate(4.43 25.53)"/><path class="cls-2" d="M213,465.45l-15.8,8.47a11.24,11.24,0,0,0,3.49,2c4.6,1.58,11.46.45,13.17-3.84C214.85,469.5,213.68,466.76,213,465.45Z" transform="translate(4.43 25.53)"/><path class="cls-2" d="M207.88,465.78l-16.27,6.93a3.49,3.49,0,0,0,1,2.74c1.24.94,3.21.22,4.51-.3s15.17-6.06,14.28-8.5C211.28,466.17,210.5,465.71,207.88,465.78Z" transform="translate(4.43 25.53)"/><path class="cls-3" d="M241.82,428.06,243,456.41c-14.51,5.91-22.43,6.88-27.05,6.54a16.86,16.86,0,0,0-8.61,1.3,16.61,16.61,0,0,0-6.39,5.4l11.69-2.72q-.9,4.14-1.79,8.28c1.45-.17,3.69-.45,6.38-.95a97.14,97.14,0,0,0,13.09-3.33c13.83-4.37,25.69,5.47,33.82-.55,3.79-2.8,4.7-10.2,6.36-24.88A234.78,234.78,0,0,0,272,421.06Z" transform="translate(4.43 25.53)"/><path class="cls-4" d="M286.28,441.46a135.51,135.51,0,0,0,69.13-6.14c3.83,5.64,5.22,7,5.62,6.74s-.85-2.07,0-4c.46-1.06,1.69-2.28,4.41-4.39a1.81,1.81,0,0,0,.59-.58c1.11-2.06-3.62-6.56-4.52-7.43a31.08,31.08,0,0,0-14.67-7.37c-2.36-.48-48-9.76-58.58,11.41A21.6,21.6,0,0,0,286.28,441.46Z" transform="translate(4.43 25.53)"/><path class="cls-4" d="M360.22,427.18a82,82,0,0,0,16.26,27.94q-4.82-13.08-9.76-26.21L365.25,425Z" transform="translate(4.43 25.53)"/><path class="cls-5" d="M295.27,418.46a4.8,4.8,0,0,1,0,2.16c-1.92,9-1.49,13.13-5.46,21.4a60.83,60.83,0,0,1-3.39,6.1,18,18,0,0,1-2.22-3.24,18.65,18.65,0,0,1-1.5-3.75,8.21,8.21,0,0,0-4.14,2.13,10.25,10.25,0,0,0-1.6,2.19,23.72,23.72,0,0,0-2.18,4.55,7.54,7.54,0,0,1,1.62-6.92,3.73,3.73,0,0,0-1.8.63c-2,1.38-1.75,4.53-2.05,4.53s-.49-1.32-.86-7.62a54.44,54.44,0,0,0,11.91-15.71c2.64-5.32,5-12.37,7.12-12a20.22,20.22,0,0,1,2.84,3A6.12,6.12,0,0,1,295.27,418.46Z" transform="translate(4.43 25.53)"/><path class="cls-4" d="M364.27,424.66l3.9,13.3,8.4,10.24c-1.95-4-2.75-6.14-2.38-6.36q.81-.49,9.48,11.84c-2.08-5-2.89-7.66-2.43-7.9s3,2.84,7.19,9.43q-3.82-10.48-3.32-10.69t6.2,11.68q-6-13.8-5.21-14.2t6.82,9.88a140.84,140.84,0,0,0-8.39-17.51c-2.75-4.86-4.8-6.28-6.52-7.37C372.8,423.69,367,424.21,364.27,424.66Z" transform="translate(4.43 25.53)"/><path class="cls-4" d="M92.2,141.44a27.35,27.35,0,0,1,10.54,7.95c5.28,6.7,3.82,10.21,9.07,19.41,1.91,3.34,3.63,4.12,6.83,9.07a77.54,77.54,0,0,1,4.19,7.31,41.57,41.57,0,0,0-5.75,10.06c-2.74,6.89-2.79,13-2.87,18a75.11,75.11,0,0,0,.55,9.94A96.11,96.11,0,0,0,119,241.48c2.57,8.33,8.1,26.25,14.7,39,.49.94,1.82,3.47,3.48,7.05,2.86,6.22,4.53,10.92,4.92,12,4.67,12.7,22,34.18,39,60.86,5.18,8.16,7.7,12.28,9.69,15.66,4.84,8.22,6.91,12.49,10.13,17.2,0,0,2.71,3.86,6.29,8.1,11.21,13.3,29.76,27.13,33.64,30,.5,1.47,1,2.94,1.51,4.42,0,1.47-.07,2.94-.1,4.42l5.36-2.79a4.12,4.12,0,0,1,1.65,2.87c0,1-.47,1.67-.25,1.82s1.18-.82,2.53-2a31.76,31.76,0,0,1,2.74-2.18,9.59,9.59,0,0,1,2.93,6.17c.05,1.45-.35,2.66,0,2.83s1.21-.62,3.55-4.35l2.38,2.24,3.28-3.57c1.06,4.64,2.05,5.68,2.79,5.71,1,.05,1.24-1.66,3.52-4.24,2-2.29,3-2.27,5.09-4.55A20.85,20.85,0,0,0,281,433.5h0c0-.09,7.66-15.82,10.06-23.72,5-16.41-2.24-32.51-6.94-43-50.28-112.32-59.2-143.66-98.23-180.8-12.16-11.58-26.79-20.42-56.06-38.12-11.69-7.06-27.59-16.12-34.8-10.48A8.83,8.83,0,0,0,92.2,141.44Z" transform="translate(4.43 25.53)"/><path class="cls-6" d="M116.21,127.92a68.41,68.41,0,0,1,24.91-15.81c5.71-2.06,22.7-8.17,40.73-1.44,23.82,8.89,33.43,34.23,35,38.33,4.29,11.32,7.33,19.05,9.1,28.27.69,3.56,1,6.13,2.71,9.66a27.34,27.34,0,0,0,4.65,6.62c6.48,6.95,12.2,14.6,18.91,21.33,9.34,9.37,19.61,21.9,40.12,47,2.06,2.52,3.11,3.8,4.05,5,10.06,12.94,14,22.8,20.6,33.54,13,21.15,19.5,31.73,21.56,35,23,36.24,26.27,36.41,33.06,50.79,7.4,15.65,15.9,32.41,12.94,50.79-.26,1.63-.56,2.92-.72,3.59l-7.66-8.38q2.27,5,4.55,10.06a42.43,42.43,0,0,1-8.39-8.62A43,43,0,0,1,367.9,426a30.73,30.73,0,0,0,1.54,7.64c1.2,3.54,3.69,7,5.91,10.24h0a90.32,90.32,0,0,1-11.19-13.61c-1.58-2.37-2.69-4.31-5.21-6.08-3.16-2.21-6-2.37-11.08-3.26a126.59,126.59,0,0,1-13.42-3.12,19.25,19.25,0,0,0,5.51,7.43c3.83,3.1,7.61,3.45,7.67,5,.06,2-5.78,3.67-6.89,4-12.12,3.37-34.87,1.77-51.09,0l-3.38-3.38a35.23,35.23,0,0,0,2.77-15.61c-.85-14-10.7-23.2-17.36-30.51-9.34-10.25-21.14-33-45-78.36-1.33-2.53-13.09-24.93-17-23.46-2,.75-1.29,7.32-3.61,7.82-1.64.35-3.57-2.58-4.27-3.67-11.28-17.52-13.28-30.45-13.28-30.45-2.09-13.54,1.1-14.51-2.14-20-4.34-7.36-10.8-6.84-16.77-15.27-3.31-4.68-4.27-9-5.54-15.11-1.61-7.7-3.3-21,0-38.55a58.43,58.43,0,0,1-20.09-1c-12-2.71-19.89-8.55-24.44-12a74.15,74.15,0,0,1-15.81-16.29Z" transform="translate(4.43 25.53)"/><path class="cls-7" d="M148.24,141a2.74,2.74,0,0,1-.45-1.53,2.62,2.62,0,0,1,1.09-2.12c.41-.25.68-.21,2.15-.2,2,0,2,.17,3.36.1a1.44,1.44,0,0,1,.54,0,2.44,2.44,0,0,1,1.51,1.85,2.58,2.58,0,0,1-.19,1.82,2.72,2.72,0,0,1-1.4,1.2c-.57.25-.79.16-3.6.1a4.43,4.43,0,0,1-1.43-.15A3,3,0,0,1,148.24,141Z" transform="translate(4.43 25.53)"/><circle cx="156.57" cy="165.01" r="1.55"/><path class="cls-8" d="M144.6,139.91a4.13,4.13,0,0,1-.58-1,19.3,19.3,0,0,1,3.59-1.22,21,21,0,0,1,11.86.81,5.86,5.86,0,0,1-.82,1.43c-3.06,3.84-10.07,2-11,1.8A5.37,5.37,0,0,1,144.6,139.91Z" transform="translate(4.43 25.53)"/><path class="cls-9" d="M116.21,127.92c-5.72-.38-10.32-.85-13.38-1.2-6.17-.7-10.22-1.35-16.45-1.26-6.51.1-9.27.91-11.34,2.86a10.93,10.93,0,0,0-3,5.35,66,66,0,0,0,6.47,4c4.63,2.47,14.63,7.67,27.91,7.55a51.63,51.63,0,0,0,16.41-2.88,36.87,36.87,0,0,1-6.45-5.31,36.5,36.5,0,0,1-3.79-4.61Z" transform="translate(4.43 25.53)"/><path class="cls-4" d="M263.31,278.85a18.67,18.67,0,0,1,3.58,16.71c-1.57,6.89-1.73,15.31-2,32.16,0,.32.28,7.11.85,20.67.6,14.12.92,21.3,2.22,27.49a86,86,0,0,0,5.26,16.59A85.68,85.68,0,0,1,263,378.39c-16.05-27.65-16-63-4.61-89.66A92,92,0,0,1,263.31,278.85Z" transform="translate(4.43 25.53)"/><path class="cls-5" d="M196.63,250.4c-.58.93,1,2.85,3.85,6.47,5,6.42,8.63,7.68,11.59,11.74,3.45,4.7,3.57,9.84,3.78,14.55,0,0,.3,6.95,3.77,42.23,1,10.68,2.81,28.6,14.2,45.46,6.85,10.15,21.83,26.79,34,23.36a13.47,13.47,0,0,0,5.4-3.12,75.68,75.68,0,0,1-5.94-11.62c-4.27-10.45-5-19.38-6.36-36.83-1-13.14-.77-19.54-.47-23.36.39-4.93,1.18-10.64,1.22-10.91,1-6.8,1.57-8.64,2.13-12.78,1-7.66,1.77-13.1.24-17.28-2.68-7.34-11.17-7.91-31.67-15C210.77,255.78,198.09,248.05,196.63,250.4Z" transform="translate(4.43 25.53)"/></g></svg>