<svg xmlns="http://www.w3.org/2000/svg" viewBox="0 0 500 528.06"><defs><style>.cls-1{fill:#887b88;}.cls-2{fill:#f15a29;}.cls-3{fill:#fff;}.cls-4{fill:#fff200;}.cls-5{fill:#cde2e8;}.cls-6{stroke:#fff;stroke-miterlimit:10;stroke-width:0.25px;}.cls-7{fill:#232428;}</style></defs><title>rockhopper</title><g id="Layer_13" data-name="Layer 13"><rect class="cls-1" width="500" height="528.06"/></g><g id="Layer_20" data-name="Layer 20"><path class="cls-2" d="M218,424.67a47.92,47.92,0,0,1-6.93,8.53c-4,3.95-7.4,5.71-10.24,7.63a50,50,0,0,0-14.34,15.5,18.59,18.59,0,0,0,13.84,7l-2.61,4.53,8.11,4.81c10.93-6.31,15.62-13.06,17.84-18.34,1.61-3.83,4.75-13.66,4.75-13.66l14.25-10.17-10.58-10.83Z" transform="translate(0 21.75)"/><path d="M224.17,422.48a45.94,45.94,0,0,0,17.58,13.1,46.66,46.66,0,0,0,28.58,2.25c-2.27-11.58-3.65-23-.33-24.33.48-.19,1-.13,1-.25.07-.55-10.61-2.53-38.33-6.75Z" transform="translate(0 21.75)"/><path class="cls-3" d="M174.33,189a20.12,20.12,0,0,1,.14,5.5,21.29,21.29,0,0,1-2.47,7.69c-2.77,5.44-1.33,12.38,0,24.81.25,2.31.44,4.63.62,6.95.49,6.71.83,11.72,1,14.39,1.26,22.82,1.65,46,1.65,46,.39,23.52-.24,20.85.36,26.48a140.61,140.61,0,0,0,8.8,36.39c1.71,4.24,1.75,3.66,5.37,12.19,4.34,10.25,5.63,14.88,9.41,23.54l8.48,19.38a89.91,89.91,0,0,0,22.16,11.51c14,5,25.67,5.11,35.17,5.16,7.89,0,27,.32,38.33-4.67,33.21-14.64,37.79-83.43,30-129-3.66-21.43-13.47-78.86-61-107.33-8-4.8-42.86-25.68-77-12.33A66.49,66.49,0,0,0,174.33,189Z" transform="translate(0 21.75)"/><path class="cls-3" d="M204.31,404.66l11.44,25.84c.9-1.36,1.88-2.67,2.25-2.5.54.25-.76,3.37,0,3.83,1,.63,4.79-4.32,5.67-3.75.68.45-1.1,3.82-.34,4.34s2.92-2.83,5.09-2.59c1.36.16,3,1.77,4.49,7.63a17.43,17.43,0,0,0,7.71-5.5c5.36-6.8,3.25-15.21,3-16.29Z" transform="translate(0 21.75)"/><path d="M214.45,187.33c13.08-6.15,26.32-.76,27.72-.16a23.22,23.22,0,0,1,7.83,4.66c9.08,8,22,19.31,25.67,37.67,1.94,9.64-.26,13.23,3.66,22.33A81.69,81.69,0,0,0,287,265a121.53,121.53,0,0,0,9.33,12c40.4,45.86,35.17,87.33,35.17,87.33-2.41,10.06-8,30.67-17.79,46.95-1.9,3.15-4,6.21-4,6.21a140.53,140.53,0,0,1-20.31,23.81l11.08-1.8a156,156,0,0,0,17.67-3.5,19.39,19.39,0,0,0,4.44-1.49c5.74-3.65,5.76-13,5.88-16.89.45-14.44,6.69-28.11,9.68-42.24,5.34-25.22,6-21.55,7.5-31.71,2.38-16.35,1-28.17-2.67-51.67-2.31-14.83-4.67-32.65-13-54.5a216.48,216.48,0,0,0-9.7-21.69c-4.43-8.65-12.85-25.05-26.82-40.64-23.76-26.54-50.59-36.21-67-42.11-22.33-8-31.06-6.22-35.72-2.3-3.89,3.27-4,7.2-9.49,14.51a59.07,59.07,0,0,1-16.68,15,29.63,29.63,0,0,1,7.37,9.54A30.69,30.69,0,0,1,174.33,189a11.83,11.83,0,0,0,4,5.5c2.95,2.13,6.46,2.25,11,1.67a55.63,55.63,0,0,0,20.5-6.17C213.12,188.28,212.28,188.36,214.45,187.33Z" transform="translate(0 21.75)"/><path d="M185.33,143.67a12.62,12.62,0,0,0,2-10.34A35.9,35.9,0,0,1,175.83,118q-1.16-5.34-2.33-10.67a87.81,87.81,0,0,0,4.67,10.17,89.31,89.31,0,0,0,10.27,15.16,34.51,34.51,0,0,1-2.22-6.07,35.41,35.41,0,0,1-1.16-10.28,94.47,94.47,0,0,0,4.88,9.88q1.78,3.12,3.59,5.81c-.28-.81-.67-2-1.09-3.44a45.17,45.17,0,0,1-1.91-8.59,31.83,31.83,0,0,1,0-6c.87,3.8,1.89,7.76,3.09,11.84.58,2,1.18,3.86,1.79,5.72a33,33,0,0,1-.88-4.29,34.47,34.47,0,0,1-.33-4.92,14.81,14.81,0,0,0,.79,3.09c.11,0-.4-2.59-.58-5.42a35.36,35.36,0,0,1,.33-7.83q.42,3,.92,6.08,1.06,6.71,2.33,13a16.83,16.83,0,0,1,.83-10.83,19.28,19.28,0,0,0,.67,6.79,18.42,18.42,0,0,0,1.08,2.87,15.12,15.12,0,0,1,.29-9.7,23.25,23.25,0,0,0,0,5.12,22.7,22.7,0,0,0,1.08,4.75,14.58,14.58,0,0,1,0-5.46,11.54,11.54,0,0,1,.64-1.74l.15-.3a19.23,19.23,0,0,1,.25,3,7.8,7.8,0,0,1,0-5.29,6.71,6.71,0,0,1,1-1.79,50.46,50.46,0,0,0,0,5.41,33.12,33.12,0,0,0,.76,5.92,11,11,0,0,1,0-7.25,8.73,8.73,0,0,1,1.25-2.16,20.66,20.66,0,0,0-.5,4.16,20,20,0,0,0,.42,4.33,10.2,10.2,0,0,1,.06-2.89,10.58,10.58,0,0,1,.72-2.41l.44,2.28,1.5-4.06a8.68,8.68,0,0,0,.09,1.66,3.9,3.9,0,0,0,.41,1.47,6.5,6.5,0,0,1,.37-3,3.68,3.68,0,0,1,1-1.18,3.9,3.9,0,0,0-.15,2.25c.19.8.71,1.77,1,1.7s.37-.83,0-4a4.49,4.49,0,0,1,.86,1.81,17.57,17.57,0,0,1,.1,1.87c.11,0,.48-.72,1.62-4-.17,1.22.12,2.17.53,2.28s1.22-.64,1.63-2c0,.56-.16,2,.15,2.07s1.07-1.59,1.25-2l.16,2.62,1.33-2.31,1.45,3.31.83-1.92c-.22,1-.15,2,.25,2.17s1.46-.45,2.25-1.83l-.66,2.5,3.91-2-1.33,2.31,2.58-1.65v2.67l2.5-2.42v3.34c.38-.6.68-1.13.91-1.57s.45-.87.73-1.56l.2-.54-.5,3.42,5.25-2.42c-.67,1.22-1.34,2.44-2,3.67l3.5-3.5c-.85,2.59-1.19,3.92-1,4s1-1.28,2.34-4.07c-.14,1.38-.28,2.77-.43,4.15C240.89,127.6,242,126,242,126s.07,0-6.33,11a36,36,0,0,1,14.64-14.34,30.12,30.12,0,0,0-6.5,5.5c-.67.76-1.27,1.51-1.81,2.25l8.72-7-7.53,7.16,8.44-6a30.64,30.64,0,0,1-4.75,4.5c-1.25.94-3.69,2.62-3.69,2.63a20.5,20.5,0,0,0,5.19-2.63,20.23,20.23,0,0,0,4.18-3.94,24.09,24.09,0,0,1-5.18,5.94,21.7,21.7,0,0,1-4.19,2.75s2.28-1.42,11.56-6.94q-2.7,2.08-5.69,4.19c-1.84,1.3-3.66,2.53-5.43,3.69L255.21,128q-3.21,2.31-6.65,4.63-2.13,1.44-4.25,2.81a51.05,51.05,0,0,0,9.82-4.13,50,50,0,0,0,5.31-3.37,36.67,36.67,0,0,1-15.94,9.25,37.3,37.3,0,0,0,10-3.13,36.85,36.85,0,0,0,6.63-4.06,22.72,22.72,0,0,1-5.88,4.63c-1.07.57-1.75.81-3.69,1.68-2.63,1.18-4.71,2.24-6.06,2.94a88.64,88.64,0,0,0,13.13-1.94,89.36,89.36,0,0,0,10-2.87,58.25,58.25,0,0,1-22.25,5.94,14.45,14.45,0,0,0,5.25.93,14.1,14.1,0,0,0,2.81-.31l12.12-2.5L253.44,142l1.81,2.06,24.19-5c-3.78,1.25-7.84,2.46-12.19,3.57-4,1-7.78,1.82-11.39,2.49l3.39.63,9.88-2.62c-1.3.57-3.16,1.36-5.44,2.18a47.49,47.49,0,0,1-4.69,1.5,24.17,24.17,0,0,1-9.37.32,58.92,58.92,0,0,0,20.93-.82,44.9,44.9,0,0,1-7.43,2.07,46.44,46.44,0,0,1-7.69.75c-9.45,2.8-55.28,15.77-68.41-2.53A17.53,17.53,0,0,1,185.33,143.67Z" transform="translate(0 21.75)"/><path class="cls-4" d="M183.5,142.81A202.23,202.23,0,0,1,157.88,135c-5.49-2.08-10.57-4.27-15.25-6.5,1.49.3,3.9.82,6.81,1.69,6.75,2,9.81,3.94,15.62,6.06a77,77,0,0,0,12.07,3.31,68.51,68.51,0,0,1-11.78-3.77c-4.59-1.95-11.33-5.41-10.95-6.48.06-.17.3-.25.5-.29a68.31,68.31,0,0,0,10.95,6.06,69.25,69.25,0,0,0,11.94,4,89.55,89.55,0,0,1-10.29-4.16c-2.19-1-4.21-2.13-6.08-3.21q2.31.63,4.75,1.46a87.13,87.13,0,0,1,12.54,5.37,41.1,41.1,0,0,0-7.82-4.51c-4.35-1.94-8.34-4.74-12.86-6.26-.12,0-.59-.19-.64-.49,0,0,0-.26.34-.59s4.68,1.35,21.44,11.1a143.23,143.23,0,0,1-24.88-13.33c-1.58-1.06-3.1-2.13-4.58-3.21,5.16,2.27,10.54,4.8,16.08,7.63q7.85,4,14.79,8a59.79,59.79,0,0,0-4.62-4.29c-1.23-1-2.43-2-3.58-2.8a27.32,27.32,0,0,1,9.29,7A152.91,152.91,0,0,0,171,124.46a47.05,47.05,0,0,1-4.83-5.67,42.76,42.76,0,0,1-4.63-8.37c2.08,3.09,4.43,6.3,7.09,9.58,8.16,10.06,16.56,17.52,16.83,17.25s-2.49-3.33-14.83-16.5l14.91,14.75-18.33-22.75c2.39,2.17,4.85,4.58,7.33,7.25a118.32,118.32,0,0,1,12.09,15.42,7.17,7.17,0,0,1,0,2.83A7.57,7.57,0,0,1,183.5,142.81Z" transform="translate(0 21.75)"/><path class="cls-4" d="M219.63,143.25a33,33,0,0,0,11.2-14.68,25,25,0,0,1-6.08,12.31,24.52,24.52,0,0,1-4.36,3.69,16.61,16.61,0,0,0,6.39-3.69,17.18,17.18,0,0,0,5.1-9.63,14.61,14.61,0,0,1-2.13,8.08,14.9,14.9,0,0,1-8.42,6.34,9,9,0,0,0,7.25,0,8.85,8.85,0,0,0,4-4.34,12.12,12.12,0,0,0,.84-8.08,9.47,9.47,0,0,1-6.75,14.33,10.73,10.73,0,0,0,7.5-.91,10.6,10.6,0,0,0,4.41-4.5,10.62,10.62,0,0,1-3.58,5.41,10.23,10.23,0,0,1-2.4,1.39,13.75,13.75,0,0,0,13.32-5,9.21,9.21,0,0,1-4.17,5c-3.16,1.62-6.1.09-15-.08-1.34,0-2.44,0-3.17,0V147.5l-2.33,1.17a1.51,1.51,0,0,0,0-1.59,1.61,1.61,0,0,0-2.25-.16Z" transform="translate(0 21.75)"/><path class="cls-4" d="M220.39,143.25c.74-2,1.46-4,2.15-6.17.42-1.3.81-2.58,1.17-3.83a13.27,13.27,0,0,1,.7,8,12.38,12.38,0,0,1-1.12,2.94l2.67-1.88c.08-2.89.17-5.78.25-8.66l1.62,8.75a8.32,8.32,0,0,0,.64-1.1,9.46,9.46,0,0,0,.78-4.36,65.73,65.73,0,0,0-.5-7.21,15.92,15.92,0,0,1,1.66,6.19c.11,2,.25,4.4-1.28,6.73a8,8,0,0,1-5.95,3.61c-.73,0-2.29.15-2.89-.82A2.48,2.48,0,0,1,220.39,143.25Z" transform="translate(0 21.75)"/><path class="cls-4" d="M226.69,143.54a80.05,80.05,0,0,0,23.52-4.21c-3.8.69-7.77,1.33-11.92,1.88-3.6.48-7.09.86-10.46,1.17Z" transform="translate(0 21.75)"/><path class="cls-4" d="M231.81,148.51c17.29.71,23.63,1.05,23.63,1.16s-23.13-.44-23-.44l50.14.77a228.59,228.59,0,0,1-28,1.08c-5.06-.14-9.51-.44-13.2-.77A150.64,150.64,0,0,0,265,152.75c3.68.09,7.21,0,10.56-.12a110.78,110.78,0,0,1-20.75.81A110.29,110.29,0,0,1,229.37,149Z" transform="translate(0 21.75)"/><path class="cls-4" d="M225.58,148.9a1.59,1.59,0,0,0,1.09,1.6l1.83.08c.77,1.4,1.9,3.53,3.17,6.17,4,8.38,4.46,11.73,7.66,19.88a147.84,147.84,0,0,0,9.42,19.29c2.23,3.84,6.56,10.85,7.25,10.5s-2-6.52-4-11.34a232,232,0,0,0-12.67-25.58l-1.09-1.9q4.62,6.68,9.59,13.48,9.27,12.67,18.5,24.09l.34-1.17,2.75,3.33c-5.74-8.05-8.53-11.8-9.95-13.6a5.24,5.24,0,0,1-.47-.65c.09-.07,5.51,6.15,10.58,12a.78.78,0,0,0,.57-.32.79.79,0,0,0,0-.84l-22.93-27.75L269,198.71a.66.66,0,0,0,.46-.27c.37-.66-1.32-2.24-1.3-2.25s.08-.07,2.94,3.2q-7.49-9-15-17.89l3.8,2.63-26.8-28.88c-4.21-5-5.72-6.95-5.88-7.38a.33.33,0,0,0-.16-.2C226.68,147.48,225.69,148.08,225.58,148.9Z" transform="translate(0 21.75)"/><path class="cls-4" d="M226.75,148.92q24.84,25,49.69,50c.17.27.26.32.31.31s.14-.64,0-1.12a2.24,2.24,0,0,0-.46-.84L269.21,190l5.71,4.87c-.92-1.32-2.18-3-3.75-5A73.74,73.74,0,0,0,264,182a66.17,66.17,0,0,0-7.5-6.08l10.92,7.75q-6.27-6.07-12.75-12.17-13.08-12.28-26-23.63Z" transform="translate(0 21.75)"/><path class="cls-4" d="M229.37,149l14.57,12.54-1.23-2.12,25,16.32v-1.42A167.22,167.22,0,0,1,239,155.25c-3-2.48-5.81-5-8.42-7.45Z" transform="translate(0 21.75)"/><path class="cls-4" d="M172.39,167.62a14.26,14.26,0,0,0-4.22,7.38,13.75,13.75,0,0,0,0,5.67,27.41,27.41,0,0,1,6-11.67Z" transform="translate(0 21.75)"/><path class="cls-4" d="M171.67,170.17a28.6,28.6,0,0,1,.33,7c-.29,3.75-1.13,4.75-1.17,7.83-.05,4.82,1.94,8.57,2.25,8.49s-1.42-4.28-.12-9.58c.46-1.84.76-2.25,1.37-4.41a33.07,33.07,0,0,0,1.23-9.65Z" transform="translate(0 21.75)"/><path class="cls-2" d="M183.5,142.81a47.44,47.44,0,0,1-10.33.69c-4.56-.2-6.76-1.71-10.84-.83a17.71,17.71,0,0,0-5.66,2.42,22.67,22.67,0,0,0-4.64,4.3c-2.4,2.61-3.6,3.93-3.2,4.78s2.17.21,4.67,1.33c1.6.71,2.06,1.56,3.5,2.83a19,19,0,0,0,6.6,3.73,43.52,43.52,0,0,0,6.49.13c5.59-.31,8.81-1.56,13.16-2.46a55.37,55.37,0,0,1,13.58-1.06,6.69,6.69,0,0,0-1-3.09c-1.7-2.6-4.77-2.84-12-4.81-2.28-.62-4.2-1.19-5.62-1.63Z" transform="translate(0 21.75)"/><path class="cls-5" d="M202.73,155.26a13.47,13.47,0,0,0,6.9,6.74,13.9,13.9,0,0,0,11.5-.62,36.49,36.49,0,0,0-18.4-6.12Z" transform="translate(0 21.75)"/><path class="cls-4" d="M195.08,147.76l7.42,2.5,1.33,1.58a30.25,30.25,0,0,0,13.42-4.58c-1.5.32-3.32.65-5.42.91a30.71,30.71,0,0,1-8.31.32,22.34,22.34,0,0,1-5.27-1.32Z" transform="translate(0 21.75)"/><path class="cls-6" d="M287.33,240.33c1.51,4.15,3.68,10.37,6,18,6.57,21.62,7,30.64,12.67,56,8.69,39.1,14.2,47.4,20.33,53.34a55.73,55.73,0,0,0,19.25,12,32.82,32.82,0,0,0,.25-5.49,34.65,34.65,0,0,0-3.58-13.9c-6.2-13.15-11.86-45.91-12.42-49.1a140.88,140.88,0,0,1-.5-43.5,76.4,76.4,0,0,0-42-27.34Z" transform="translate(0 21.75)"/><path d="M323.23,408.5q4.88,10.41,9.77,20.83l-4.44-1.55,9.77,14.39L330,435.33a405.91,405.91,0,0,1,31.5,38.34c1.2,1.66,8.15,11.29,7.67,11.66s-8.18-9-24-26.83c-4.7-5.3-8.59-9.63-11.17-12.5q30,43.41,29.31,43.92t-27-34.92q22.31,36.08,21.17,36.83t-23.33-30.5L351,493.17a89.86,89.86,0,0,1-22.83-25A88.31,88.31,0,0,1,320,450.83q6.09,14.42,12.17,28.84a118.58,118.58,0,0,1-19-22,65.67,65.67,0,0,1-4.12-7.13,62.86,62.86,0,0,1-5.55-17.21Q313.37,420.93,323.23,408.5Z" transform="translate(0 21.75)"/><path class="cls-7" d="M179.75,474.25c-.59-.16-1.15-1.35-1-5.87l9.89-15.4c2.63,1,3.52,2.41,3.85,3.1a49.59,49.59,0,0,1,1.59,5.91,23.66,23.66,0,0,0-8.33,5.26h0C181.74,471,180.88,474.55,179.75,474.25Z" transform="translate(0 21.75)"/><path class="cls-7" d="M197.72,467.86a19.56,19.56,0,0,0-.34,6.52c.58,5,3.13,9.44,4.09,9.2.8-.2-.18-3.36,1.66-7.2a12.69,12.69,0,0,1,2.7-3.71,5.74,5.74,0,0,0-3.45-5A5.84,5.84,0,0,0,197.72,467.86Z" transform="translate(0 21.75)"/><path class="cls-2" d="M266.75,437.83c-1,3.15-1.72,5.8-2.21,7.67a16.79,16.79,0,0,0-5.91-1.62c-4.47-.37-7.85,1.25-15.25,5.25-5.36,2.88-9.93,5.45-13.5,7.5l7,6.62a10.68,10.68,0,0,1,5.12-.37,10.08,10.08,0,0,1,3,1l6,3.25,4.3-2.49a19.65,19.65,0,0,0,4.95,1.24c.94.1,7.94.81,13.75-3.38,3.52-2.54,5-5.89,7.71-12.5a84.14,84.14,0,0,0,4.92-16.5c-2.68-1.2-13.73-5.93-17.43-1.95C268.5,432.3,267.91,434.16,266.75,437.83Z" transform="translate(0 21.75)"/><path class="cls-7" d="M232.26,455.26a5.67,5.67,0,0,0-4.13,1.37c-1.44,1.37-1.13,3.05-2.88,4.62a7.32,7.32,0,0,1-2.62,1.38c-1.83.73-4.14,2.9-5.88,9.5a84,84,0,0,0,15-6.5c2.08-1.16,4-2.36,5.8-3.55a4.54,4.54,0,0,0-5.29-6.82Z" transform="translate(0 21.75)"/><path class="cls-7" d="M246.13,471.75c-.93.18-2.73-2.35-2.84-4.91-.17-3.77,3.37-6.38,3.9-6.77a8.48,8.48,0,0,1,4.56,3.93,4.06,4.06,0,0,1-.75,3.13c-1,1.13-2.16.74-3.36,2S246.75,471.63,246.13,471.75Z" transform="translate(0 21.75)"/><path class="cls-3" d="M261,420a48.8,48.8,0,0,0,3.54,22.42c1.23-1.82,2-2.67,2.21-2.54s-.05,1.36-.92,3.7c1.13-1.2,2.62-2.68,3-2.41.16.1.27.59-.95,3.12,1.64-2.48,3.84-3.31,4.75-2.71.75.51.82,2.18.25,3.92q4.28-5,5.45-4.37c.57.31.6,1.61.09,3.91,3-4,3.86-4.33,4.16-4.16s.46,1-.87,4.83A45.5,45.5,0,0,0,295.17,437a46.74,46.74,0,0,0,13.08-22.25L265,404.33A48.35,48.35,0,0,0,261,420Z" transform="translate(0 21.75)"/></g></svg>