<svg xmlns="http://www.w3.org/2000/svg" viewBox="0 0 499.57 499.57"><defs><style>.cls-1{fill:#887b88;}.cls-2{fill:#f15a29;}.cls-3{fill:#fff;}.cls-4{fill:#fff200;}.cls-5{fill:#cde2e8;}.cls-6{fill:#fe3720;}.cls-7{stroke:#fff;stroke-miterlimit:10;stroke-width:0.25px;}.cls-8{fill:#232428;}</style></defs><title>rockhopper</title><g id="Layer_13" data-name="Layer 13"><rect class="cls-1" width="499.57" height="499.57"/></g><g id="Layer_20" data-name="Layer 20"><path class="cls-2" d="M212.58,393.52a54.41,54.41,0,0,1-7.81,9.62c-4.57,4.45-8.35,6.43-11.54,8.6-4.48,3.05-10.46,8.24-16.17,17.47a20.94,20.94,0,0,0,15.61,7.9l-2.95,5.1,9.15,5.42c12.31-7.11,17.6-14.72,20.1-20.67,1.82-4.32,5.36-15.41,5.36-15.41l16.06-11.46-11.92-12.21Z" transform="translate(-0.43)"/><path d="M219.54,391.05a51.71,51.71,0,0,0,19.82,14.77,52.64,52.64,0,0,0,32.22,2.54c-2.56-13.07-4.12-26-.38-27.43.55-.22,1.11-.15,1.13-.29.08-.61-12-2.85-43.21-7.6Q224.32,382,219.54,391.05Z" transform="translate(-0.43)"/><path class="cls-3" d="M163.36,127.84a23.14,23.14,0,0,1,.15,6.2,23.89,23.89,0,0,1-2.78,8.67c-3.13,6.13-1.5,14,0,28q.41,3.91.69,7.84c.56,7.56.94,13.21,1.1,16.21,1.43,25.73,1.87,51.88,1.87,51.88.44,26.51-.27,23.5.41,29.85a157.86,157.86,0,0,0,9.92,41c1.92,4.78,2,4.13,6,13.74,4.9,11.56,6.35,16.77,10.62,26.54l9.55,21.85a102,102,0,0,0,25,13c15.8,5.57,28.94,5.75,39.65,5.81,8.89.05,30.46.36,43.21-5.26,37.44-16.5,42.6-94.06,33.82-145.43-4.13-24.16-15.19-88.9-68.77-121-9-5.41-48.32-28.95-86.8-13.9A74.85,74.85,0,0,0,163.36,127.84Z" transform="translate(-0.43)"/><path class="cls-3" d="M197.15,371l12.9,29.13c1-1.53,2.12-3,2.53-2.82.61.28-.85,3.8,0,4.32,1.17.71,5.4-4.87,6.39-4.22.77.5-1.23,4.3-.37,4.88s3.28-3.19,5.73-2.91c1.53.17,3.38,2,5.06,8.6a19.61,19.61,0,0,0,8.69-6.2c6-7.67,3.67-17.15,3.34-18.37Z" transform="translate(-0.43)"/><path class="cls-4" d="M161.17,103.74a16,16,0,0,0-4.77,8.32,15.64,15.64,0,0,0,0,6.39,31.19,31.19,0,0,1,6.81-13.16Z" transform="translate(-0.43)"/><path class="cls-4" d="M160.35,106.61a32.38,32.38,0,0,1,.38,7.89c-.33,4.23-1.28,5.36-1.32,8.83-.06,5.44,2.18,9.66,2.53,9.57s-1.6-4.83-.13-10.8c.51-2.07.85-2.53,1.55-5a37.43,37.43,0,0,0,1.38-10.88Z" transform="translate(-0.43)"/><path d="M208.58,126c14.74-6.93,29.68-.85,31.25-.19a26.42,26.42,0,0,1,8.83,5.26c10.23,9,24.76,21.77,28.93,42.47,2.19,10.87-.29,14.91,4.14,25.17a91.4,91.4,0,0,0,8.64,14.85,135.58,135.58,0,0,0,10.52,13.53c45.54,51.7,39.65,98.45,39.65,98.45-2.72,11.34-9,34.57-20.06,52.92-2.14,3.55-4.48,7-4.48,7a158.57,158.57,0,0,1-22.9,26.83l12.49-2a174.39,174.39,0,0,0,19.91-3.95c2.77-.76,4.16-1.14,5-1.68,6.48-4.11,6.49-14.62,6.63-19,.51-16.28,7.54-31.69,10.91-47.62,6-28.43,6.79-24.29,8.46-35.75,2.68-18.43,1.11-31.75-3-58.24-2.6-16.72-5.26-36.82-14.66-61.44a245.55,245.55,0,0,0-10.93-24.46c-5-9.74-14.49-28.23-30.23-45.81-26.8-29.92-57-40.82-75.49-47.47-25.18-9.07-35-7-40.28-2.59-4.38,3.68-4.52,8.11-10.68,16.36a66.41,66.41,0,0,1-18.82,16.92,33.58,33.58,0,0,1,8.32,10.76,34.74,34.74,0,0,1,2.63,21.61,13.19,13.19,0,0,0,4.5,6.2c3.32,2.4,7.28,2.53,12.41,1.88A62.61,62.61,0,0,0,203.38,129C207.08,127,206.13,127.11,208.58,126Z" transform="translate(-0.43)"/><path d="M175.76,76.73A14.24,14.24,0,0,0,178,65.08a40.78,40.78,0,0,1-7.33-7.32,40.32,40.32,0,0,1-5.63-10q-1.32-6-2.63-12a101.38,101.38,0,0,0,5.26,11.47,101.28,101.28,0,0,0,11.58,17.08,39.49,39.49,0,0,1-3.81-18.42A105.51,105.51,0,0,0,181,57c1.34,2.35,2.7,4.54,4.05,6.55-.32-.92-.76-2.25-1.23-3.87A50.83,50.83,0,0,1,181.62,50a35.58,35.58,0,0,1,0-6.8c1,4.29,2.13,8.75,3.49,13.35.65,2.21,1.32,4.35,2,6.45a38.07,38.07,0,0,1-1-4.84,40.92,40.92,0,0,1-.38-5.54,17.23,17.23,0,0,0,.9,3.47c.12,0-.45-2.91-.66-6.1a40.21,40.21,0,0,1,.38-8.83q.48,3.39,1,6.85c.8,5,1.69,9.95,2.63,14.71a19.2,19.2,0,0,1-.33-7.94,18.71,18.71,0,0,1,1.27-4.28,21.61,21.61,0,0,0,.75,7.66,21,21,0,0,0,1.22,3.24,16.93,16.93,0,0,1,.33-10.94,26.24,26.24,0,0,0,1.27,11.13,16.22,16.22,0,0,1,0-6.15,13.07,13.07,0,0,1,.72-2l.17-.34a19.47,19.47,0,0,1,.28,3.39,8.79,8.79,0,0,1,0-6,7.29,7.29,0,0,1,1.17-2,55.37,55.37,0,0,0,0,6.1,38.49,38.49,0,0,0,.85,6.67,12.38,12.38,0,0,1,.05-8.18,10.2,10.2,0,0,1,1.4-2.43,23.16,23.16,0,0,0-.56,4.69,23.42,23.42,0,0,0,.47,4.88,11.22,11.22,0,0,1,.89-6l.49,2.57,1.69-4.58a9.53,9.53,0,0,0,.11,1.87,4.26,4.26,0,0,0,.45,1.65c.15,0-.4-1.81.43-3.42a4,4,0,0,1,1.12-1.33,4.36,4.36,0,0,0-.17,2.53c.21.91.8,2,1.11,1.93s.41-.94,0-4.5a5.39,5.39,0,0,1,1,2,19.07,19.07,0,0,1,.1,2.12c.13,0,.55-.82,1.83-4.55-.19,1.37.14,2.45.6,2.57S210,52.5,210.5,51c-.05.63-.17,2.24.18,2.33s1.2-1.79,1.41-2.29l.18,3,1.5-2.6,1.63,3.73.94-2.16c-.26,1.17-.17,2.22.28,2.44s1.64-.5,2.54-2.07l-.75,2.82,4.41-2.25-1.51,2.61,2.92-1.86v3l2.82-2.72V58.7c.43-.67.76-1.28,1-1.77a17.5,17.5,0,0,0,.82-1.76c.1-.25.17-.46.23-.61l-.57,3.85,5.92-2.72-2.25,4.13,3.94-3.94c-.95,2.92-1.33,4.42-1.12,4.51s1.1-1.44,2.64-4.59l-.48,4.68c1.19-1.86,2.38-3.7,2.44-3.66s.08,0-7.14,12.36A40.54,40.54,0,0,1,249,53a34.56,34.56,0,0,0-7.33,6.2c-.76.86-1.44,1.71-2,2.54l9.83-7.93L241,61.89l9.51-6.76a33.89,33.89,0,0,1-5.36,5.07c-1.4,1.06-4.15,3-4.15,3a23.34,23.34,0,0,0,5.85-3,22.92,22.92,0,0,0,4.72-4.44,27.18,27.18,0,0,1-5.85,6.69,23.72,23.72,0,0,1-4.72,3.1s2.57-1.6,13-7.82c-2,1.56-4.17,3.14-6.41,4.72-2.08,1.47-4.13,2.86-6.13,4.16l13.07-7.54c-2.42,1.73-4.92,3.48-7.5,5.22q-2.41,1.62-4.79,3.17a57.42,57.42,0,0,0,11.06-4.65,58.36,58.36,0,0,0,6-3.81,41.34,41.34,0,0,1-18,10.43,41.7,41.7,0,0,0,18.74-8.1,25.18,25.18,0,0,1-6.62,5.21c-1.21.65-2,.92-4.16,1.9-3,1.34-5.31,2.52-6.83,3.31a100.07,100.07,0,0,0,14.79-2.18,101.84,101.84,0,0,0,11.28-3.24,65.91,65.91,0,0,1-8,3.31A65.74,65.74,0,0,1,243.44,73a16.16,16.16,0,0,0,5.92,1.06,15.8,15.8,0,0,0,3.17-.35l13.67-2.82-13.67,3.94c.68.78,1.36,1.56,2.05,2.33l27.26-5.64c-4.25,1.41-8.83,2.77-13.74,4-4.48,1.14-8.77,2.06-12.83,2.82l3.82.7,11.13-3c-1.46.66-3.56,1.55-6.13,2.47a53.47,53.47,0,0,1-5.29,1.69,27.12,27.12,0,0,1-10.57.35,67.18,67.18,0,0,0,12.55.57,67.64,67.64,0,0,0,11.06-1.48A51.37,51.37,0,0,1,263.45,82a50.58,50.58,0,0,1-8.66.85c-10.66,3.16-62.32,17.78-77.12-2.85A18.8,18.8,0,0,1,175.76,76.73Z" transform="translate(-0.43)"/><path class="cls-4" d="M173.69,75.77A228,228,0,0,1,144.8,67c-6.18-2.34-11.91-4.81-17.19-7.32,1.68.33,4.4.92,7.68,1.9,7.62,2.26,11.06,4.44,17.61,6.83a88.41,88.41,0,0,0,13.6,3.74,78.44,78.44,0,0,1-13.27-4.25c-5.18-2.2-12.78-6.1-12.35-7.31.07-.2.34-.28.56-.32a78.83,78.83,0,0,0,12.36,6.83,78.2,78.2,0,0,0,13.45,4.51,101.34,101.34,0,0,1-11.6-4.7c-2.46-1.18-4.75-2.4-6.86-3.62q2.61.72,5.36,1.65A98.1,98.1,0,0,1,168.29,71a45.1,45.1,0,0,0-8.82-5.09c-4.9-2.19-9.4-5.34-14.49-7.05-.14,0-.67-.22-.73-.56,0,0-.05-.29.39-.67s5.27,1.53,24.16,12.52a162.17,162.17,0,0,1-28-15q-2.67-1.78-5.17-3.62,8.74,3.84,18.14,8.6c5.89,3,11.45,6,16.67,9.06a69.9,69.9,0,0,0-5.21-4.83c-1.38-1.16-2.74-2.21-4-3.15A30.44,30.44,0,0,1,171.62,69a168.2,168.2,0,0,0-12-14,52.22,52.22,0,0,1-5.44-6.39A47.68,47.68,0,0,1,149,39.25c2.34,3.48,5,7.11,8,10.8,9.2,11.35,18.67,19.75,19,19.45s-2.8-3.76-16.72-18.6L176,67.53,155.37,41.88c2.69,2.44,5.47,5.16,8.27,8.17a134.75,134.75,0,0,1,13.62,17.38,8.07,8.07,0,0,1,0,3.2A8.55,8.55,0,0,1,173.69,75.77Z" transform="translate(-0.43)"/><path class="cls-4" d="M214.41,76.26a37.27,37.27,0,0,0,12.64-16.54,28.21,28.21,0,0,1-6.86,13.87,26.94,26.94,0,0,1-4.92,4.16,18.77,18.77,0,0,0,7.21-4.16,19.25,19.25,0,0,0,5.74-10.85,16.47,16.47,0,0,1-2.39,9.11A16.79,16.79,0,0,1,216.34,79a10.14,10.14,0,0,0,8.17,0A10,10,0,0,0,229,74.1,13.57,13.57,0,0,0,230,65a10.68,10.68,0,0,1-7.61,16.16A11.82,11.82,0,0,0,235.79,75a12.13,12.13,0,0,1-4,6.11,11.76,11.76,0,0,1-2.7,1.56,15.43,15.43,0,0,0,15-5.6c-1.42,3.41-3.26,4.9-4.69,5.64-3.57,1.82-6.88.1-16.91-.1-1.51,0-2.75,0-3.57,0V81.06l-2.63,1.31a1.7,1.7,0,0,0,0-1.78,1.81,1.81,0,0,0-2.54-.19C213.94,79,214.18,77.64,214.41,76.26Z" transform="translate(-0.43)"/><path class="cls-4" d="M215.27,76.26q1.26-3.3,2.43-7c.47-1.46.91-2.91,1.32-4.32a14.87,14.87,0,0,1,.79,9,14.42,14.42,0,0,1-1.26,3.31l3-2.12c.09-3.26.18-6.51.28-9.77l1.83,9.87a8.68,8.68,0,0,0,.71-1.24,10.52,10.52,0,0,0,.89-4.92A74.42,74.42,0,0,0,224.7,61a17.85,17.85,0,0,1,1.87,7c.13,2.22.28,5-1.45,7.58a9.05,9.05,0,0,1-6.7,4.08c-.82,0-2.58.17-3.25-.93A2.81,2.81,0,0,1,215.27,76.26Z" transform="translate(-0.43)"/><path class="cls-4" d="M222.38,76.59a90.68,90.68,0,0,0,16.46-2,89.34,89.34,0,0,0,10-2.77Q242.47,73,235.46,74c-4.06.54-8,1-11.79,1.32Z" transform="translate(-0.43)"/><path class="cls-4" d="M228.15,82.19c19.49.8,26.64,1.18,26.64,1.31S228.71,83,228.86,83l56.53.86a258.14,258.14,0,0,1-31.57,1.22c-5.7-.16-10.73-.49-14.89-.86A169.82,169.82,0,0,0,265.57,87c4.15.1,8.13,0,11.9-.14a124.28,124.28,0,0,1-23.39.92,124.2,124.2,0,0,1-28.67-5Z" transform="translate(-0.43)"/><path class="cls-4" d="M221.13,82.64a1.81,1.81,0,0,0,1.22,1.8l2.07.09c.87,1.58,2.14,4,3.57,7,4.53,9.45,5,13.23,8.64,22.41a166.18,166.18,0,0,0,10.62,21.75c2.52,4.33,7.39,12.24,8.17,11.83s-2.23-7.35-4.51-12.77a262,262,0,0,0-14.28-28.84c-.52-.92-.95-1.66-1.23-2.14q5.21,7.52,10.81,15.19,10.46,14.29,20.86,27.16l.38-1.32,3.1,3.76c-6.47-9.08-9.61-13.3-11.21-15.34a6.39,6.39,0,0,1-.54-.73c.1-.08,6.22,6.94,11.93,13.53a.84.84,0,0,0,.64-1.31l-25.84-31.29L270,138.78a.7.7,0,0,0,.52-.3c.42-.74-1.48-2.52-1.46-2.54s.08-.07,3.31,3.61q-8.44-10.08-16.88-20.17l4.27,3-30.2-32.55c-4.76-5.63-6.45-7.84-6.63-8.32a.44.44,0,0,0-.18-.23C222.36,81,221.25,81.7,221.13,82.64Z" transform="translate(-0.43)"/><path class="cls-4" d="M222.45,82.65l56,56.39c.19.31.29.37.35.35s.17-.72,0-1.26a2.68,2.68,0,0,0-.51-.94l-8-8.27,6.44,5.5c-1-1.49-2.45-3.44-4.23-5.64a82.19,82.19,0,0,0-8.08-8.83,76.11,76.11,0,0,0-8.45-6.86l12.3,8.74q-7.05-6.84-14.37-13.72-14.73-13.85-29.26-26.64Z" transform="translate(-0.43)"/><path class="cls-4" d="M225.41,82.76,241.82,96.9l-1.38-2.4,28.13,18.4v-1.59a189.23,189.23,0,0,1-32.31-21.52c-3.39-2.8-6.55-5.61-9.5-8.4Z" transform="translate(-0.43)"/><path class="cls-2" d="M173.69,75.77a53.85,53.85,0,0,1-11.65.78c-5.14-.23-7.62-1.93-12.21-.94a19.7,19.7,0,0,0-6.39,2.73,26.3,26.3,0,0,0-5.23,4.84c-2.71,2.95-4.05,4.44-3.6,5.39s2.44.25,5.26,1.5c1.8.81,2.33,1.77,3.95,3.2a21.38,21.38,0,0,0,7.44,4.2,50.21,50.21,0,0,0,7.32.14c6.3-.34,9.93-1.75,14.83-2.77a62.47,62.47,0,0,1,15.31-1.2,7.57,7.57,0,0,0-1.15-3.47c-1.92-2.93-5.38-3.21-13.57-5.43-2.58-.69-4.74-1.34-6.34-1.84Z" transform="translate(-0.43)"/><path class="cls-5" d="M216.1,96.7a15.15,15.15,0,0,1-5,1.78,14.1,14.1,0,0,1-12.78-4.25h0a14.88,14.88,0,0,1-2.93-4.42,26.16,26.16,0,0,1,3.43-.27,24.13,24.13,0,0,1,10.39,2.23,23.52,23.52,0,0,1,4.32,2.63A24.34,24.34,0,0,1,216.1,96.7Z" transform="translate(-0.43)"/><path class="cls-6" d="M213.51,94.39a7.71,7.71,0,0,1-2.43,4.09,14.1,14.1,0,0,1-12.78-4.25h0a7.93,7.93,0,0,1-.16-1.56,7.76,7.76,0,0,1,.66-3.13,24.13,24.13,0,0,1,10.39,2.23A23.52,23.52,0,0,1,213.51,94.39Z" transform="translate(-0.43)"/><path class="cls-4" d="M186.75,81.34l8.36,2.82,1.5,1.79a34.21,34.21,0,0,0,15.13-5.17c-1.69.36-3.75.74-6.11,1a35,35,0,0,1-9.37.36,25.75,25.75,0,0,1-5.94-1.48Z" transform="translate(-0.43)"/><path class="cls-7" d="M290.74,185.71c1.71,4.68,4.15,11.68,6.77,20.29,7.4,24.37,7.92,34.54,14.28,63.13,9.8,44.08,16,53.43,22.92,60.13a63,63,0,0,0,21.7,13.52,36.81,36.81,0,0,0,.28-6.2,39.34,39.34,0,0,0-4-15.66c-7-14.83-13.38-51.76-14-55.36a158.74,158.74,0,0,1-.57-49,86.22,86.22,0,0,0-47.35-30.81Z" transform="translate(-0.43)"/><path d="M331.21,375.29q5.51,11.74,11,23.49l-5-1.75q5.5,8.1,11,16.21l-9.4-7.7a459.59,459.59,0,0,1,35.52,43.21c1.35,1.88,9.18,12.73,8.64,13.16s-9.22-10.11-27.06-30.25c-5.29-6-9.67-10.86-12.59-14.09q33.84,48.93,33,49.51T346,427.71q25.14,40.68,23.87,41.52t-26.31-34.38l19,35.89a101.32,101.32,0,0,1-25.74-28.19A99.55,99.55,0,0,1,327.57,423q6.85,16.26,13.72,32.51a134,134,0,0,1-21.42-24.8,72.13,72.13,0,0,1-4.64-8A70.57,70.57,0,0,1,309,403.29Q320.08,389.28,331.21,375.29Z" transform="translate(-0.43)"/><path class="cls-8" d="M169.46,449.41c-.67-.18-1.3-1.52-1.13-6.62l11.15-17.35c3,1.14,4,2.71,4.35,3.49a54.91,54.91,0,0,1,1.78,6.66,26.53,26.53,0,0,0-9.38,5.93h0C171.71,445.79,170.73,449.75,169.46,449.41Z" transform="translate(-0.43)"/><path class="cls-8" d="M189.72,442.21a22.33,22.33,0,0,0-.39,7.34c.66,5.68,3.53,10.65,4.62,10.38.9-.22-.21-3.79,1.86-8.12a14.42,14.42,0,0,1,3.06-4.18,6.51,6.51,0,0,0-3.9-5.69A6.59,6.59,0,0,0,189.72,442.21Z" transform="translate(-0.43)"/><path class="cls-2" d="M267.54,408.36c-1.12,3.55-1.94,6.53-2.49,8.64a19,19,0,0,0-6.67-1.83c-5-.41-8.84,1.42-17.19,5.92-6,3.25-11.19,6.14-15.22,8.45l7.89,7.47a12.24,12.24,0,0,1,5.78-.42,11.66,11.66,0,0,1,3.38,1.13l6.76,3.66,4.85-2.8a22.18,22.18,0,0,0,5.58,1.39c1.06.12,9,.92,15.5-3.8,4-2.87,5.6-6.65,8.69-14.1a94,94,0,0,0,5.55-18.6c-3-1.34-15.48-6.68-19.65-2.19C269.52,402.12,268.85,404.21,267.54,408.36Z" transform="translate(-0.43)"/><path class="cls-8" d="M228.66,428a6.44,6.44,0,0,0-4.66,1.53c-1.63,1.55-5.44,6.46-6.2,6.77-2.07.82-4.66,3.27-6.63,10.71a94.7,94.7,0,0,0,16.91-7.33c2.35-1.31,4.53-2.65,6.54-4a5.12,5.12,0,0,0-6-7.68Z" transform="translate(-0.43)"/><path class="cls-8" d="M244.29,446.59c-1,.2-3.07-2.65-3.2-5.53-.18-4.25,3.8-7.2,4.4-7.63a9.63,9.63,0,0,1,5.14,4.43,4.53,4.53,0,0,1-.85,3.52c-1.08,1.28-2.43.84-3.79,2.26S245,446.46,244.29,446.59Z" transform="translate(-0.43)"/><path class="cls-3" d="M261.06,388.25a55,55,0,0,0,4,25.28c1.39-2,2.22-3,2.49-2.87s-.05,1.54-1,4.18c1.26-1.36,2.95-3,3.38-2.72.17.12.3.67-1.08,3.52,1.85-2.79,4.34-3.73,5.35-3.05.86.57.94,2.45.29,4.41q4.82-5.65,6.15-4.93,1,.53.09,4.41c3.36-4.48,4.35-4.88,4.7-4.69s.51,1.14-1,5.45a51.45,51.45,0,0,0,15.18-9.82,52.64,52.64,0,0,0,14.74-25.08l-48.75-11.75A54.35,54.35,0,0,0,261.06,388.25Z" transform="translate(-0.43)"/><circle cx="204.75" cy="93.95" r="1.82"/></g></svg>